<svg width="17" height="17" viewBox="0 0 17 17" fill="none" xmlns="http://www.w3.org/2000/svg">
<path d="M14.875 15.5834H2.125C1.83458 15.5834 1.59375 15.3425 1.59375 15.0521C1.59375 14.7617 1.83458 14.5209 2.125 14.5209H14.875C15.1654 14.5209 15.4062 14.7617 15.4062 15.0521C15.4062 15.3425 15.1654 15.5834 14.875 15.5834Z" fill="#EA985B"/>
<path d="M13.4725 2.46497C12.0984 1.0908 10.7525 1.05539 9.34295 2.46497L8.48587 3.32205C8.41503 3.39289 8.3867 3.50622 8.41503 3.60539C8.95337 5.48247 10.455 6.98414 12.3321 7.52247C12.3604 7.52955 12.3888 7.53664 12.4171 7.53664C12.495 7.53664 12.5659 7.5083 12.6225 7.45164L13.4725 6.59455C14.1738 5.90039 14.5138 5.22747 14.5138 4.54747C14.5209 3.84622 14.1809 3.16622 13.4725 2.46497Z" fill="#EA985B"/>
<path d="M11.057 8.16707C10.8516 8.0679 10.6533 7.96873 10.462 7.8554C10.3062 7.76332 10.1574 7.66415 10.0087 7.5579C9.88827 7.47998 9.74661 7.36665 9.61202 7.25332C9.59786 7.24623 9.54827 7.20373 9.49161 7.14707C9.25786 6.94873 8.99577 6.69373 8.76202 6.4104C8.74077 6.39623 8.70536 6.34665 8.65577 6.2829C8.58494 6.1979 8.46452 6.05623 8.35827 5.89332C8.27327 5.78707 8.17411 5.63123 8.08202 5.4754C7.96869 5.28415 7.86952 5.0929 7.77036 4.89457C7.64034 4.61595 7.27466 4.53318 7.05725 4.75059L3.07411 8.73373C2.98202 8.82582 2.89702 9.0029 2.87577 9.12332L2.49327 11.8362C2.42244 12.3179 2.55702 12.7712 2.85452 13.0758C3.10952 13.3237 3.46369 13.4583 3.84619 13.4583C3.93119 13.4583 4.01619 13.4512 4.10119 13.4371L6.82119 13.0546C6.94869 13.0333 7.12577 12.9483 7.21077 12.8562L11.2005 8.86652C11.4135 8.65346 11.3335 8.28687 11.057 8.16707Z" fill="#EA985B"/>
</svg>
