<svg width="20" height="20" viewBox="0 0 20 20" fill="none" xmlns="http://www.w3.org/2000/svg">
<mask id="path-1-inside-1_2539_5489" fill="white">
<path d="M10 18.9587C5.05834 18.9587 1.04167 14.942 1.04167 10.0003C1.04167 5.05866 5.05834 1.04199 10 1.04199C14.9417 1.04199 18.9583 5.05866 18.9583 10.0003C18.9583 14.942 14.9417 18.9587 10 18.9587ZM10 2.29199C5.75001 2.29199 2.29167 5.75033 2.29167 10.0003C2.29167 14.2503 5.75001 17.7087 10 17.7087C14.25 17.7087 17.7083 14.2503 17.7083 10.0003C17.7083 5.75033 14.25 2.29199 10 2.29199Z"/>
</mask>
<path d="M10 18.9587C5.05834 18.9587 1.04167 14.942 1.04167 10.0003C1.04167 5.05866 5.05834 1.04199 10 1.04199C14.9417 1.04199 18.9583 5.05866 18.9583 10.0003C18.9583 14.942 14.9417 18.9587 10 18.9587ZM10 2.29199C5.75001 2.29199 2.29167 5.75033 2.29167 10.0003C2.29167 14.2503 5.75001 17.7087 10 17.7087C14.25 17.7087 17.7083 14.2503 17.7083 10.0003C17.7083 5.75033 14.25 2.29199 10 2.29199Z" fill="#545555"/>
<path d="M10 17.4587C5.88677 17.4587 2.54167 14.1136 2.54167 10.0003H-0.458328C-0.458328 15.7704 4.22991 20.4587 10 20.4587V17.4587ZM2.54167 10.0003C2.54167 5.88709 5.88677 2.54199 10 2.54199V-0.458008C4.22991 -0.458008 -0.458328 4.23023 -0.458328 10.0003H2.54167ZM10 2.54199C14.1132 2.54199 17.4583 5.88709 17.4583 10.0003H20.4583C20.4583 4.23023 15.7701 -0.458008 10 -0.458008V2.54199ZM17.4583 10.0003C17.4583 14.1136 14.1132 17.4587 10 17.4587V20.4587C15.7701 20.4587 20.4583 15.7704 20.4583 10.0003H17.4583ZM10 0.791992C4.92158 0.791992 0.791672 4.9219 0.791672 10.0003H3.79167C3.79167 6.57875 6.57843 3.79199 10 3.79199V0.791992ZM0.791672 10.0003C0.791672 15.0788 4.92158 19.2087 10 19.2087V16.2087C6.57843 16.2087 3.79167 13.4219 3.79167 10.0003H0.791672ZM10 19.2087C15.0784 19.2087 19.2083 15.0788 19.2083 10.0003H16.2083C16.2083 13.4219 13.4216 16.2087 10 16.2087V19.2087ZM19.2083 10.0003C19.2083 4.9219 15.0784 0.791992 10 0.791992V3.79199C13.4216 3.79199 16.2083 6.57875 16.2083 10.0003H19.2083Z" fill="#545555" mask="url(#path-1-inside-1_2539_5489)"/>
<mask id="path-3-inside-2_2539_5489" fill="white">
<path d="M7.5 18.125H6.66666C6.325 18.125 6.04166 17.8417 6.04166 17.5C6.04166 17.1583 6.30833 16.8833 6.65 16.875C5.34166 12.4083 5.34166 7.59167 6.65 3.125C6.30833 3.11667 6.04166 2.84167 6.04166 2.5C6.04166 2.15833 6.325 1.875 6.66666 1.875H7.5C7.7 1.875 7.89166 1.975 8.00833 2.13333C8.125 2.3 8.15833 2.50833 8.09166 2.7C6.525 7.40833 6.525 12.5917 8.09166 17.3083C8.15833 17.5 8.125 17.7083 8.00833 17.875C7.89166 18.025 7.7 18.125 7.5 18.125Z"/>
</mask>
<path d="M7.5 18.125H6.66666C6.325 18.125 6.04166 17.8417 6.04166 17.5C6.04166 17.1583 6.30833 16.8833 6.65 16.875C5.34166 12.4083 5.34166 7.59167 6.65 3.125C6.30833 3.11667 6.04166 2.84167 6.04166 2.5C6.04166 2.15833 6.325 1.875 6.66666 1.875H7.5C7.7 1.875 7.89166 1.975 8.00833 2.13333C8.125 2.3 8.15833 2.50833 8.09166 2.7C6.525 7.40833 6.525 12.5917 8.09166 17.3083C8.15833 17.5 8.125 17.7083 8.00833 17.875C7.89166 18.025 7.7 18.125 7.5 18.125Z" fill="#545555"/>
<path d="M6.65 16.875L6.68657 18.3746L8.63831 18.327L8.08951 16.4534L6.65 16.875ZM6.65 3.125L8.08951 3.54665L8.63831 1.67305L6.68657 1.62545L6.65 3.125ZM8.00833 2.13333L9.23718 1.27314L9.22673 1.25821L9.21591 1.24353L8.00833 2.13333ZM8.09166 2.7L6.67492 2.20722L6.67159 2.21679L6.66839 2.22641L8.09166 2.7ZM8.09166 17.3083L6.66814 17.7812L6.67146 17.7912L6.67492 17.8011L8.09166 17.3083ZM8.00833 17.875L9.19236 18.7959L9.21553 18.7661L9.23718 18.7352L8.00833 17.875ZM7.5 16.625H6.66666V19.625H7.5V16.625ZM6.66666 16.625C7.15342 16.625 7.54166 17.0132 7.54166 17.5H4.54166C4.54166 18.6701 5.49657 19.625 6.66666 19.625V16.625ZM7.54166 17.5C7.54166 17.9672 7.16412 18.3629 6.68657 18.3746L6.61342 15.3754C5.45254 15.4038 4.54166 16.3494 4.54166 17.5H7.54166ZM8.08951 16.4534C6.86182 12.262 6.86182 7.738 8.08951 3.54665L5.21048 2.70335C3.8215 7.44533 3.8215 12.5547 5.21048 17.2966L8.08951 16.4534ZM6.68657 1.62545C7.16412 1.63709 7.54166 2.03278 7.54166 2.5H4.54166C4.54166 3.65056 5.45254 4.59624 6.61342 4.62455L6.68657 1.62545ZM7.54166 2.5C7.54166 2.98676 7.15342 3.375 6.66666 3.375V0.375C5.49657 0.375 4.54166 1.32991 4.54166 2.5H7.54166ZM6.66666 3.375H7.5V0.375H6.66666V3.375ZM7.5 3.375C7.2117 3.375 6.9598 3.23899 6.80075 3.02313L9.21591 1.24353C8.82353 0.711007 8.18829 0.375 7.5 0.375V3.375ZM6.77948 2.99353C6.63477 2.78679 6.57499 2.49451 6.67492 2.20722L9.50841 3.19278C9.74167 2.52215 9.61522 1.81321 9.23718 1.27314L6.77948 2.99353ZM6.66839 2.22641C4.99933 7.24246 4.9996 12.7578 6.66814 17.7812L9.51519 16.8355C8.0504 12.4255 8.05066 7.57421 9.51494 3.17359L6.66839 2.22641ZM6.67492 17.8011C6.57499 17.5138 6.63477 17.2215 6.77948 17.0148L9.23718 18.7352C9.61522 18.1951 9.74167 17.4862 9.50841 16.8156L6.67492 17.8011ZM6.8243 16.9541C6.97973 16.7543 7.21776 16.625 7.5 16.625V19.625C8.18223 19.625 8.8036 19.2957 9.19236 18.7959L6.8243 16.9541Z" fill="#545555" mask="url(#path-3-inside-2_2539_5489)"/>
<mask id="path-5-inside-3_2539_5489" fill="white">
<path d="M12.5 18.1252C12.4333 18.1252 12.3667 18.1169 12.3 18.0919C11.975 17.9836 11.7917 17.6252 11.9083 17.3002C13.475 12.5919 13.475 7.40856 11.9083 2.6919C11.8 2.3669 11.975 2.00856 12.3 1.90023C12.6333 1.7919 12.9833 1.9669 13.0917 2.2919C14.75 7.25856 14.75 12.7252 13.0917 17.6836C13.0083 17.9586 12.7583 18.1252 12.5 18.1252Z"/>
</mask>
<path d="M12.5 18.1252C12.4333 18.1252 12.3667 18.1169 12.3 18.0919C11.975 17.9836 11.7917 17.6252 11.9083 17.3002C13.475 12.5919 13.475 7.40856 11.9083 2.6919C11.8 2.3669 11.975 2.00856 12.3 1.90023C12.6333 1.7919 12.9833 1.9669 13.0917 2.2919C14.75 7.25856 14.75 12.7252 13.0917 17.6836C13.0083 17.9586 12.7583 18.1252 12.5 18.1252Z" fill="#545555"/>
<path d="M12.3 18.0919L12.8267 16.6874L12.8007 16.6777L12.7743 16.6689L12.3 18.0919ZM11.9083 17.3002L13.3201 17.807L13.3261 17.7905L13.3316 17.7738L11.9083 17.3002ZM11.9083 2.6919L13.3319 2.21907L13.3314 2.21756L11.9083 2.6919ZM12.3 1.90023L11.8364 0.47364L11.8257 0.477206L12.3 1.90023ZM13.0917 2.2919L11.6686 2.76624L11.6689 2.76696L13.0917 2.2919ZM13.0917 17.6836L11.6691 17.2078L11.6623 17.2281L11.6561 17.2486L13.0917 17.6836ZM12.5 16.6252C12.5603 16.6252 12.6817 16.633 12.8267 16.6874L11.7733 19.4964C12.0517 19.6008 12.3064 19.6252 12.5 19.6252V16.6252ZM12.7743 16.6689C13.2168 16.8163 13.4989 17.309 13.3201 17.807L10.4965 16.7934C10.0844 17.9415 10.7332 19.1508 11.8257 19.5149L12.7743 16.6689ZM13.3316 17.7738C15.0007 12.7578 15.0004 7.24244 13.3319 2.21907L10.4848 3.16473C11.9496 7.57469 11.9493 12.426 10.4851 16.8266L13.3316 17.7738ZM13.3314 2.21756C13.4798 2.66283 13.2508 3.16443 12.7743 3.32326L11.8257 0.477206C10.6992 0.852696 10.1202 2.07097 10.4853 3.16624L13.3314 2.21756ZM12.7636 3.32678C12.3313 3.4673 11.8268 3.24078 11.6686 2.76624L14.5147 1.81756C14.1398 0.693011 12.9354 0.116492 11.8364 0.47368L12.7636 3.32678ZM11.6689 2.76696C13.2244 7.42554 13.2241 12.5585 11.6691 17.2078L14.5142 18.1593C16.2759 12.892 16.2757 7.09159 14.5145 1.81684L11.6689 2.76696ZM11.6561 17.2486C11.7734 16.8617 12.1287 16.6252 12.5 16.6252V19.6252C13.388 19.6252 14.2433 19.0554 14.5272 18.1186L11.6561 17.2486Z" fill="#545555" mask="url(#path-5-inside-3_2539_5489)"/>
<mask id="path-7-inside-4_2539_5489" fill="white">
<path d="M10 14.333C7.675 14.333 5.35833 14.008 3.125 13.3497C3.11667 13.683 2.84167 13.958 2.5 13.958C2.15833 13.958 1.875 13.6747 1.875 13.333V12.4997C1.875 12.2997 1.975 12.108 2.13333 11.9913C2.3 11.8747 2.50833 11.8413 2.7 11.908C7.40833 13.4747 12.6 13.4747 17.3083 11.908C17.5 11.8413 17.7083 11.8747 17.875 11.9913C18.0417 12.108 18.1333 12.2997 18.1333 12.4997V13.333C18.1333 13.6747 17.85 13.958 17.5083 13.958C17.1667 13.958 16.8917 13.6913 16.8833 13.3497C14.6417 14.008 12.325 14.333 10 14.333Z"/>
</mask>
<path d="M10 14.333C7.675 14.333 5.35833 14.008 3.125 13.3497C3.11667 13.683 2.84167 13.958 2.5 13.958C2.15833 13.958 1.875 13.6747 1.875 13.333V12.4997C1.875 12.2997 1.975 12.108 2.13333 11.9913C2.3 11.8747 2.50833 11.8413 2.7 11.908C7.40833 13.4747 12.6 13.4747 17.3083 11.908C17.5 11.8413 17.7083 11.8747 17.875 11.9913C18.0417 12.108 18.1333 12.2997 18.1333 12.4997V13.333C18.1333 13.6747 17.85 13.958 17.5083 13.958C17.1667 13.958 16.8917 13.6913 16.8833 13.3497C14.6417 14.008 12.325 14.333 10 14.333Z" fill="#545555"/>
<path d="M3.125 13.3497L3.54912 11.9109L1.67432 11.3582L1.62547 13.3122L3.125 13.3497ZM2.13333 11.9913L1.27314 10.7625L1.25821 10.7729L1.24353 10.7838L2.13333 11.9913ZM2.7 11.908L2.20722 13.3247L2.21679 13.3281L2.22641 13.3313L2.7 11.908ZM17.3083 11.908L17.7819 13.3313L17.7915 13.3281L17.8011 13.3247L17.3083 11.908ZM16.8833 13.3497L18.3829 13.3131L18.3352 11.3599L16.4607 11.9104L16.8833 13.3497ZM10 12.833C7.81463 12.833 5.64101 12.5275 3.54912 11.9109L2.70088 14.7885C5.07566 15.4885 7.53537 15.833 10 15.833V12.833ZM1.62547 13.3122C1.63725 12.8408 2.01905 12.458 2.5 12.458V15.458C3.66428 15.458 4.59608 14.5252 4.62453 13.3872L1.62547 13.3122ZM2.5 12.458C2.98676 12.458 3.375 12.8462 3.375 13.333H0.375C0.375 14.5031 1.32991 15.458 2.5 15.458V12.458ZM3.375 13.333V12.4997H0.375V13.333H3.375ZM3.375 12.4997C3.375 12.788 3.23899 13.0399 3.02313 13.1989L1.24353 10.7838C0.711007 11.1761 0.375 11.8114 0.375 12.4997H3.375ZM2.99353 13.2202C2.78679 13.3649 2.49451 13.4247 2.20722 13.3247L3.19278 10.4913C2.52215 10.258 1.81321 10.3844 1.27314 10.7625L2.99353 13.2202ZM2.22641 13.3313C7.24219 15.0002 12.7661 15.0002 17.7819 13.3313L16.8347 10.4847C12.4339 11.9491 7.57448 11.9491 3.17359 10.4847L2.22641 13.3313ZM17.8011 13.3247C17.5138 13.4247 17.2215 13.3649 17.0148 13.2202L18.7352 10.7625C18.1951 10.3844 17.4862 10.258 16.8156 10.4913L17.8011 13.3247ZM17.0148 13.2202C16.7507 13.0353 16.6333 12.7516 16.6333 12.4997H19.6333C19.6333 11.8477 19.3326 11.1807 18.7352 10.7625L17.0148 13.2202ZM16.6333 12.4997V13.333H19.6333V12.4997H16.6333ZM16.6333 13.333C16.6333 12.8462 17.0216 12.458 17.5083 12.458V15.458C18.6784 15.458 19.6333 14.5031 19.6333 13.333H16.6333ZM17.5083 12.458C17.9756 12.458 18.3712 12.8355 18.3829 13.3131L15.3838 13.3862C15.4121 14.5471 16.3578 15.458 17.5083 15.458V12.458ZM16.4607 11.9104C14.3593 12.5276 12.1851 12.833 10 12.833V15.833C12.4649 15.833 14.9241 15.4884 17.306 14.7889L16.4607 11.9104Z" fill="#545555" mask="url(#path-7-inside-4_2539_5489)"/>
<mask id="path-9-inside-5_2539_5489" fill="white">
<path d="M17.5 8.12546C17.4333 8.12546 17.3667 8.11712 17.3 8.09212C12.5917 6.52546 7.39999 6.52546 2.69166 8.09212C2.35833 8.20046 2.00833 8.02546 1.89999 7.70046C1.79999 7.36712 1.97499 7.01712 2.29999 6.90879C7.26666 5.25046 12.7333 5.25046 17.6917 6.90879C18.0167 7.01712 18.2 7.37546 18.0833 7.70046C18.0083 7.95879 17.7583 8.12546 17.5 8.12546Z"/>
</mask>
<path d="M17.5 8.12546C17.4333 8.12546 17.3667 8.11712 17.3 8.09212C12.5917 6.52546 7.39999 6.52546 2.69166 8.09212C2.35833 8.20046 2.00833 8.02546 1.89999 7.70046C1.79999 7.36712 1.97499 7.01712 2.29999 6.90879C7.26666 5.25046 12.7333 5.25046 17.6917 6.90879C18.0167 7.01712 18.2 7.37546 18.0833 7.70046C18.0083 7.95879 17.7583 8.12546 17.5 8.12546Z" fill="#545555"/>
<path d="M17.3 8.09212L17.8267 6.68763L17.8003 6.67774L17.7736 6.66885L17.3 8.09212ZM2.69166 8.09212L3.1553 9.51871L3.16525 9.5154L2.69166 8.09212ZM1.89999 7.70046L0.463253 8.13148L0.469782 8.15324L0.476968 8.1748L1.89999 7.70046ZM2.29999 6.90879L2.77433 8.33181L2.77505 8.33158L2.29999 6.90879ZM17.6917 6.90879L17.2159 8.33134L17.2173 8.33181L17.6917 6.90879ZM18.0833 7.70046L16.6715 7.19366L16.6558 7.2375L16.6428 7.28224L18.0833 7.70046ZM17.5 6.62546C17.5603 6.62546 17.6816 6.63324 17.8267 6.68763L16.7733 9.49662C17.0517 9.60101 17.3064 9.62546 17.5 9.62546V6.62546ZM17.7736 6.66885C12.7578 4.99988 7.23384 4.99988 2.21807 6.66885L3.16525 9.5154C7.56614 8.05103 12.4255 8.05103 16.8264 9.5154L17.7736 6.66885ZM2.22803 6.66557C2.6604 6.52505 3.16484 6.75157 3.32302 7.22611L0.476968 8.1748C0.851816 9.29934 2.05625 9.87586 3.15529 9.51867L2.22803 6.66557ZM3.33673 7.26943C3.45984 7.67979 3.2506 8.17306 2.77433 8.33181L1.82565 5.48576C0.699389 5.86118 0.140145 7.05445 0.463253 8.13148L3.33673 7.26943ZM2.77505 8.33158C7.43364 6.77611 12.5666 6.77636 17.2159 8.33134L18.1674 5.48624C12.9001 3.72455 7.09968 3.7248 1.82493 5.486L2.77505 8.33158ZM17.2173 8.33181C16.7749 8.18434 16.4928 7.69169 16.6715 7.19366L19.4951 8.20725C19.9072 7.05923 19.2584 5.8499 18.166 5.48576L17.2173 8.33181ZM16.6428 7.28224C16.7722 6.83666 17.159 6.62546 17.5 6.62546V9.62546C18.3577 9.62546 19.2445 9.08092 19.5238 8.11867L16.6428 7.28224Z" fill="#545555" mask="url(#path-9-inside-5_2539_5489)"/>
</svg>
