<svg width="20" height="20" viewBox="0 0 20 20" fill="none" xmlns="http://www.w3.org/2000/svg">
<path d="M12.7 18.5581H12.5917C8.89167 18.5581 7.10834 17.0997 6.8 13.8331C6.76667 13.4914 7.01667 13.1831 7.36667 13.1497C7.7 13.1164 8.01667 13.3747 8.05 13.7164C8.29167 16.3331 9.525 17.3081 12.6 17.3081H12.7083C16.1 17.3081 17.3 16.1081 17.3 12.7164V7.28307C17.3 3.89141 16.1 2.69141 12.7083 2.69141H12.6C9.50834 2.69141 8.275 3.68307 8.05 6.34974C8.00834 6.69141 7.71667 6.94974 7.36667 6.91641C7.01667 6.89141 6.76667 6.58307 6.79167 6.24141C7.075 2.92474 8.86667 1.44141 12.5917 1.44141H12.7C16.7917 1.44141 18.5417 3.19141 18.5417 7.28307V12.7164C18.5417 16.8081 16.7917 18.5581 12.7 18.5581Z" fill="#545555"/>
<path d="M12.5 10.625H3.01666C2.675 10.625 2.39166 10.3417 2.39166 10C2.39166 9.65833 2.675 9.375 3.01666 9.375H12.5C12.8417 9.375 13.125 9.65833 13.125 10C13.125 10.3417 12.8417 10.625 12.5 10.625Z" fill="#545555"/>
<path d="M4.875 13.4162C4.71667 13.4162 4.55834 13.3579 4.43334 13.2329L1.64167 10.4412C1.4 10.1995 1.4 9.79954 1.64167 9.55788L4.43334 6.76621C4.675 6.52454 5.075 6.52454 5.31667 6.76621C5.55834 7.00788 5.55834 7.40788 5.31667 7.64954L2.96667 9.99954L5.31667 12.3495C5.55834 12.5912 5.55834 12.9912 5.31667 13.2329C5.2 13.3579 5.03334 13.4162 4.875 13.4162Z" fill="#323333"/>
</svg>
