<svg width="20" height="20" viewBox="0 0 20 20" fill="none" xmlns="http://www.w3.org/2000/svg">
<mask id="path-1-inside-1_2539_6523" fill="white">
<path d="M6.66667 18.5998C6.43334 18.5998 6.19166 18.5415 5.97499 18.4249C5.49999 18.1749 5.20834 17.6748 5.20834 17.1415V15.9582C2.69167 15.6999 1.04167 13.8498 1.04167 11.1998V6.19987C1.04167 3.3332 2.96667 1.4082 5.83334 1.4082H14.1667C17.0333 1.4082 18.9583 3.3332 18.9583 6.19987V11.1998C18.9583 14.0665 17.0333 15.9915 14.1667 15.9915H11.025L7.47498 18.3582C7.23331 18.5166 6.95001 18.5998 6.66667 18.5998ZM5.83334 2.64986C3.68334 2.64986 2.29167 4.04153 2.29167 6.19153V11.1916C2.29167 13.3416 3.68334 14.7332 5.83334 14.7332C6.17501 14.7332 6.45834 15.0166 6.45834 15.3582V17.1332C6.45834 17.2416 6.52501 17.2916 6.56668 17.3166C6.60834 17.3416 6.69168 17.3666 6.78335 17.3082L10.4917 14.8416C10.5917 14.7749 10.7167 14.7332 10.8417 14.7332H14.175C16.325 14.7332 17.7167 13.3416 17.7167 11.1916V6.19153C17.7167 4.04153 16.325 2.64986 14.175 2.64986H5.83334Z"/>
</mask>
<path d="M6.66667 18.5998C6.43334 18.5998 6.19166 18.5415 5.97499 18.4249C5.49999 18.1749 5.20834 17.6748 5.20834 17.1415V15.9582C2.69167 15.6999 1.04167 13.8498 1.04167 11.1998V6.19987C1.04167 3.3332 2.96667 1.4082 5.83334 1.4082H14.1667C17.0333 1.4082 18.9583 3.3332 18.9583 6.19987V11.1998C18.9583 14.0665 17.0333 15.9915 14.1667 15.9915H11.025L7.47498 18.3582C7.23331 18.5166 6.95001 18.5998 6.66667 18.5998ZM5.83334 2.64986C3.68334 2.64986 2.29167 4.04153 2.29167 6.19153V11.1916C2.29167 13.3416 3.68334 14.7332 5.83334 14.7332C6.17501 14.7332 6.45834 15.0166 6.45834 15.3582V17.1332C6.45834 17.2416 6.52501 17.2916 6.56668 17.3166C6.60834 17.3416 6.69168 17.3666 6.78335 17.3082L10.4917 14.8416C10.5917 14.7749 10.7167 14.7332 10.8417 14.7332H14.175C16.325 14.7332 17.7167 13.3416 17.7167 11.1916V6.19153C17.7167 4.04153 16.325 2.64986 14.175 2.64986H5.83334Z" fill="#323333"/>
<path d="M5.97499 18.4249L6.68614 17.1041L6.67989 17.1008L6.67361 17.0975L5.97499 18.4249ZM5.20834 15.9582H6.70834V14.6043L5.36151 14.4661L5.20834 15.9582ZM11.025 15.9915V14.4915H10.5708L10.1929 14.7434L11.025 15.9915ZM7.47498 18.3582L8.29705 19.613L8.30705 19.6063L7.47498 18.3582ZM6.78335 17.3082L7.58866 18.5737L7.60146 18.5656L7.6141 18.5572L6.78335 17.3082ZM10.4917 14.8416L11.3224 16.0905L11.3237 16.0897L10.4917 14.8416ZM6.66667 17.0998C6.67414 17.0998 6.67749 17.1007 6.67828 17.1008C6.67924 17.1011 6.68172 17.1018 6.68614 17.1041L5.26384 19.7456C5.70281 19.9819 6.18938 20.0998 6.66667 20.0998V17.0998ZM6.67361 17.0975C6.69065 17.1064 6.69983 17.1177 6.70351 17.1239C6.70672 17.1293 6.70834 17.1349 6.70834 17.1415H3.70834C3.70834 18.2139 4.29295 19.2346 5.27637 19.7522L6.67361 17.0975ZM6.70834 17.1415V15.9582H3.70834V17.1415H6.70834ZM5.36151 14.4661C4.44201 14.3717 3.7612 14.0006 3.30722 13.4848C2.85114 12.9667 2.54167 12.208 2.54167 11.1998H-0.458328C-0.458328 12.8416 0.0571986 14.333 1.05529 15.467C2.05548 16.6033 3.458 17.2864 5.05517 17.4504L5.36151 14.4661ZM2.54167 11.1998V6.19987H-0.458328V11.1998H2.54167ZM2.54167 6.19987C2.54167 5.11015 2.90103 4.31183 3.42317 3.7897C3.9453 3.26756 4.74362 2.9082 5.83334 2.9082V-0.0917969C4.05639 -0.0917969 2.45888 0.511343 1.30184 1.66838C0.144812 2.82541 -0.458328 4.42292 -0.458328 6.19987H2.54167ZM5.83334 2.9082H14.1667V-0.0917969H5.83334V2.9082ZM14.1667 2.9082C15.2564 2.9082 16.0547 3.26756 16.5768 3.7897C17.099 4.31183 17.4583 5.11015 17.4583 6.19987H20.4583C20.4583 4.42292 19.8552 2.82541 18.6982 1.66838C17.5411 0.511343 15.9436 -0.0917969 14.1667 -0.0917969V2.9082ZM17.4583 6.19987V11.1998H20.4583V6.19987H17.4583ZM17.4583 11.1998C17.4583 12.2895 17.099 13.0879 16.5768 13.61C16.0547 14.1321 15.2564 14.4915 14.1667 14.4915V17.4915C15.9436 17.4915 17.5411 16.8883 18.6982 15.7313C19.8552 14.5743 20.4583 12.9768 20.4583 11.1998H17.4583ZM14.1667 14.4915H11.025V17.4915H14.1667V14.4915ZM10.1929 14.7434L6.64291 17.1102L8.30705 19.6063L11.8571 17.2395L10.1929 14.7434ZM6.65294 17.1035C6.65585 17.1016 6.6577 17.101 6.6586 17.1007C6.65941 17.1005 6.66181 17.0998 6.66667 17.0998V20.0998C7.24049 20.0998 7.80975 19.9322 8.29702 19.6129L6.65294 17.1035ZM5.83334 1.14986C4.42866 1.14986 3.13835 1.61103 2.1956 2.55378C1.25284 3.49654 0.791672 4.78685 0.791672 6.19153H3.79167C3.79167 5.4462 4.02633 4.96569 4.31692 4.67511C4.6075 4.38452 5.08801 4.14986 5.83334 4.14986V1.14986ZM0.791672 6.19153V11.1916H3.79167V6.19153H0.791672ZM0.791672 11.1916C0.791672 12.5963 1.25284 13.8866 2.1956 14.8293C3.13835 15.7721 4.42866 16.2332 5.83334 16.2332V13.2332C5.08801 13.2332 4.6075 12.9986 4.31692 12.708C4.02633 12.4174 3.79167 11.9369 3.79167 11.1916H0.791672ZM5.83334 16.2332C5.34658 16.2332 4.95834 15.845 4.95834 15.3582H7.95834C7.95834 14.1882 7.00343 13.2332 5.83334 13.2332V16.2332ZM4.95834 15.3582V17.1332H7.95834V15.3582H4.95834ZM4.95834 17.1332C4.95834 18.0294 5.58255 18.4754 5.79493 18.6028L7.33842 16.0303C7.38809 16.0601 7.55003 16.1604 7.69677 16.356C7.86236 16.5767 7.95834 16.8508 7.95834 17.1332H4.95834ZM5.79493 18.6028C6.17793 18.8326 6.88925 19.0188 7.58866 18.5737L5.97804 16.0427C6.20543 15.898 6.47413 15.8312 6.73938 15.8459C6.98197 15.8594 7.18435 15.9379 7.33842 16.0303L5.79493 18.6028ZM7.6141 18.5572L11.3224 16.0905L9.66095 13.5926L5.95261 16.0593L7.6141 18.5572ZM11.3237 16.0897C11.1985 16.1732 11.0372 16.2332 10.8417 16.2332V13.2332C10.3961 13.2332 9.98493 13.3766 9.65964 13.5935L11.3237 16.0897ZM10.8417 16.2332H14.175V13.2332H10.8417V16.2332ZM14.175 16.2332C15.5797 16.2332 16.87 15.7721 17.8128 14.8293C18.7555 13.8866 19.2167 12.5963 19.2167 11.1916H16.2167C16.2167 11.9369 15.982 12.4174 15.6914 12.708C15.4009 12.9986 14.9203 13.2332 14.175 13.2332V16.2332ZM19.2167 11.1916V6.19153H16.2167V11.1916H19.2167ZM19.2167 6.19153C19.2167 4.78685 18.7555 3.49654 17.8128 2.55378C16.87 1.61103 15.5797 1.14986 14.175 1.14986V4.14986C14.9203 4.14986 15.4009 4.38452 15.6914 4.67511C15.982 4.96569 16.2167 5.4462 16.2167 6.19153H19.2167ZM14.175 1.14986H5.83334V4.14986H14.175V1.14986Z" fill="#545555" mask="url(#path-1-inside-1_2539_6523)"/>
<mask id="path-3-inside-2_2539_6523" fill="white">
<path d="M9.99984 10.0918C9.65818 10.0918 9.37484 9.80846 9.37484 9.4668V9.29183C9.37484 8.32516 10.0832 7.85015 10.3498 7.66682C10.6582 7.45849 10.7582 7.31683 10.7582 7.10016C10.7582 6.68349 10.4165 6.3418 9.99984 6.3418C9.58318 6.3418 9.24153 6.68349 9.24153 7.10016C9.24153 7.44183 8.9582 7.72516 8.61653 7.72516C8.27486 7.72516 7.99153 7.44183 7.99153 7.10016C7.99153 5.99183 8.89151 5.0918 9.99984 5.0918C11.1082 5.0918 12.0082 5.99183 12.0082 7.10016C12.0082 8.05016 11.3082 8.52514 11.0499 8.70014C10.7249 8.91681 10.6248 9.0585 10.6248 9.29183V9.4668C10.6248 9.8168 10.3415 10.0918 9.99984 10.0918Z"/>
</mask>
<path d="M9.99984 10.0918C9.65818 10.0918 9.37484 9.80846 9.37484 9.4668V9.29183C9.37484 8.32516 10.0832 7.85015 10.3498 7.66682C10.6582 7.45849 10.7582 7.31683 10.7582 7.10016C10.7582 6.68349 10.4165 6.3418 9.99984 6.3418C9.58318 6.3418 9.24153 6.68349 9.24153 7.10016C9.24153 7.44183 8.9582 7.72516 8.61653 7.72516C8.27486 7.72516 7.99153 7.44183 7.99153 7.10016C7.99153 5.99183 8.89151 5.0918 9.99984 5.0918C11.1082 5.0918 12.0082 5.99183 12.0082 7.10016C12.0082 8.05016 11.3082 8.52514 11.0499 8.70014C10.7249 8.91681 10.6248 9.0585 10.6248 9.29183V9.4668C10.6248 9.8168 10.3415 10.0918 9.99984 10.0918Z" fill="#545555"/>
<path d="M10.3498 7.66682L9.51001 6.4239L9.50003 6.43076L10.3498 7.66682ZM11.0499 8.70014L11.8819 9.94825L11.8911 9.94202L11.0499 8.70014ZM9.99984 8.5918C10.4866 8.5918 10.8748 8.98004 10.8748 9.4668H7.87484C7.87484 10.6369 8.82975 11.5918 9.99984 11.5918V8.5918ZM10.8748 9.4668V9.29183H7.87484V9.4668H10.8748ZM10.8748 9.29183C10.8748 9.23843 10.8837 9.20993 10.8896 9.19475C10.8965 9.17671 10.9088 9.15357 10.9327 9.12373C10.9906 9.05161 11.0654 8.99514 11.1996 8.90288L9.50003 6.43076C9.24534 6.60586 7.87484 7.47972 7.87484 9.29183H10.8748ZM11.1896 8.9097C11.3855 8.77735 11.6666 8.57001 11.8883 8.26117C12.1562 7.88784 12.2582 7.48337 12.2582 7.10016H9.25815C9.25815 7.03715 9.26567 6.93671 9.30174 6.81725C9.33873 6.69472 9.39384 6.59163 9.45095 6.51206C9.50378 6.43844 9.54876 6.39826 9.55813 6.39009C9.56679 6.38254 9.5562 6.39275 9.51004 6.42394L11.1896 8.9097ZM12.2582 7.10016C12.2582 5.8552 11.2451 4.8418 9.99984 4.8418V7.8418C9.58795 7.8418 9.25815 7.51179 9.25815 7.10016H12.2582ZM9.99984 4.8418C8.75462 4.8418 7.74153 5.8552 7.74153 7.10016H10.7415C10.7415 7.51179 10.4117 7.8418 9.99984 7.8418V4.8418ZM7.74153 7.10016C7.74153 6.6134 8.12977 6.22516 8.61653 6.22516V9.22516C9.78663 9.22516 10.7415 8.27025 10.7415 7.10016H7.74153ZM8.61653 6.22516C9.10329 6.22516 9.49153 6.6134 9.49153 7.10016H6.49153C6.49153 8.27025 7.44644 9.22516 8.61653 9.22516V6.22516ZM9.49153 7.10016C9.49153 6.8202 9.71999 6.5918 9.99984 6.5918V3.5918C8.06303 3.5918 6.49153 5.16345 6.49153 7.10016H9.49153ZM9.99984 6.5918C10.2797 6.5918 10.5082 6.8202 10.5082 7.10016H13.5082C13.5082 5.16345 11.9367 3.5918 9.99984 3.5918V6.5918ZM10.5082 7.10016C10.5082 7.1484 10.5002 7.17372 10.495 7.1872C10.4887 7.2036 10.4771 7.22556 10.4541 7.25432C10.3994 7.32282 10.326 7.37872 10.2086 7.45827L11.8911 9.94202C12.1525 9.76497 13.5082 8.89359 13.5082 7.10016H10.5082ZM10.2178 7.45207C10.0185 7.58494 9.72477 7.79675 9.4958 8.11658C9.21686 8.50622 9.12484 8.91983 9.12484 9.29183H12.1248C12.1248 9.34117 12.1195 9.43515 12.0854 9.552C12.0498 9.67386 11.995 9.77934 11.9351 9.86289C11.8802 9.93961 11.8332 9.98087 11.8247 9.98816C11.8172 9.99463 11.8302 9.98267 11.8819 9.94822L10.2178 7.45207ZM9.12484 9.29183V9.4668H12.1248V9.29183H9.12484ZM9.12484 9.4668C9.12484 8.97537 9.52615 8.5918 9.99984 8.5918V11.5918C11.1569 11.5918 12.1248 10.6582 12.1248 9.4668H9.12484Z" fill="#545555" mask="url(#path-3-inside-2_2539_6523)"/>
<path d="M10 12.167C9.65 12.167 9.375 11.8837 9.375 11.542C9.375 11.2003 9.65833 10.917 10 10.917C10.3417 10.917 10.625 11.2003 10.625 11.542C10.625 11.8837 10.35 12.167 10 12.167Z" fill="#323333"/>
</svg>
