<svg width="20" height="20" viewBox="0 0 20 20" fill="none" xmlns="http://www.w3.org/2000/svg">
<mask id="path-1-inside-1_2539_6512" fill="white">
<path d="M14.0833 15.8415C13.825 15.8415 13.5667 15.7665 13.3417 15.6165L12.5417 15.0915C12.3167 14.9415 12.2083 14.6582 12.2833 14.3998C12.3417 14.2082 12.3667 13.9831 12.3667 13.7331V10.3414C12.3667 8.98311 11.5167 8.13314 10.1583 8.13314H4.5C4.4 8.13314 4.30834 8.14149 4.21667 8.14982C4.04167 8.15815 3.87501 8.09981 3.74168 7.98314C3.60834 7.86648 3.54167 7.69982 3.54167 7.52482V5.21647C3.54167 2.76647 5.25834 1.0498 7.70834 1.0498H14.7917C17.2417 1.0498 18.9583 2.76647 18.9583 5.21647V9.46645C18.9583 10.6748 18.55 11.7414 17.8 12.4748C17.2 13.0831 16.3667 13.4748 15.4167 13.5915V14.5164C15.4167 15.0164 15.1417 15.4665 14.7083 15.6998C14.5083 15.7915 14.2917 15.8415 14.0833 15.8415ZM13.5833 14.2748L14.125 14.5831C14.175 14.5581 14.175 14.5164 14.175 14.5081V12.9998C14.175 12.6581 14.4583 12.3748 14.8 12.3748C15.675 12.3748 16.4167 12.0998 16.925 11.5832C17.45 11.0665 17.7167 10.3331 17.7167 9.45811V5.20813C17.7167 3.43313 16.575 2.29146 14.8 2.29146H7.71667C5.94167 2.29146 4.8 3.43313 4.8 5.20813V6.8748H10.1667C12.2 6.8748 13.625 8.29982 13.625 10.3332V13.7248C13.6167 13.9164 13.6083 14.0998 13.5833 14.2748Z"/>
</mask>
<path d="M14.0833 15.8415C13.825 15.8415 13.5667 15.7665 13.3417 15.6165L12.5417 15.0915C12.3167 14.9415 12.2083 14.6582 12.2833 14.3998C12.3417 14.2082 12.3667 13.9831 12.3667 13.7331V10.3414C12.3667 8.98311 11.5167 8.13314 10.1583 8.13314H4.5C4.4 8.13314 4.30834 8.14149 4.21667 8.14982C4.04167 8.15815 3.87501 8.09981 3.74168 7.98314C3.60834 7.86648 3.54167 7.69982 3.54167 7.52482V5.21647C3.54167 2.76647 5.25834 1.0498 7.70834 1.0498H14.7917C17.2417 1.0498 18.9583 2.76647 18.9583 5.21647V9.46645C18.9583 10.6748 18.55 11.7414 17.8 12.4748C17.2 13.0831 16.3667 13.4748 15.4167 13.5915V14.5164C15.4167 15.0164 15.1417 15.4665 14.7083 15.6998C14.5083 15.7915 14.2917 15.8415 14.0833 15.8415ZM13.5833 14.2748L14.125 14.5831C14.175 14.5581 14.175 14.5164 14.175 14.5081V12.9998C14.175 12.6581 14.4583 12.3748 14.8 12.3748C15.675 12.3748 16.4167 12.0998 16.925 11.5832C17.45 11.0665 17.7167 10.3331 17.7167 9.45811V5.20813C17.7167 3.43313 16.575 2.29146 14.8 2.29146H7.71667C5.94167 2.29146 4.8 3.43313 4.8 5.20813V6.8748H10.1667C12.2 6.8748 13.625 8.29982 13.625 10.3332V13.7248C13.6167 13.9164 13.6083 14.0998 13.5833 14.2748Z" fill="#323333"/>
<path d="M13.3417 15.6165L14.1737 14.3683L14.1647 14.3624L13.3417 15.6165ZM12.5417 15.0915L11.7096 16.3396L11.7187 16.3455L12.5417 15.0915ZM12.2833 14.3998L10.8483 13.9631L10.8455 13.9723L10.8428 13.9816L12.2833 14.3998ZM4.21667 8.14982L4.28802 9.64812L4.32029 9.64659L4.35247 9.64366L4.21667 8.14982ZM17.8 12.4748L16.7513 11.4023L16.7416 11.4118L16.7321 11.4215L17.8 12.4748ZM15.4167 13.5915L15.2338 12.1026L13.9167 12.2644V13.5915H15.4167ZM14.7083 15.6998L15.3333 17.0634L15.3771 17.0434L15.4195 17.0205L14.7083 15.6998ZM13.5833 14.2748L12.0984 14.0627L11.954 15.0733L12.8413 15.5784L13.5833 14.2748ZM14.125 14.5831L13.383 15.8867L14.0792 16.2831L14.7958 15.9248L14.125 14.5831ZM16.925 11.5832L15.8729 10.514L15.8642 10.5225L15.8558 10.5311L16.925 11.5832ZM4.8 6.8748H3.3V8.3748H4.8V6.8748ZM13.625 13.7248L15.1236 13.7899L15.125 13.7574V13.7248H13.625ZM14.0833 14.3415C14.1159 14.3415 14.148 14.3512 14.1737 14.3684L12.5096 16.8645C12.9854 17.1817 13.5341 17.3415 14.0833 17.3415V14.3415ZM14.1647 14.3624L13.3647 13.8374L11.7187 16.3455L12.5187 16.8705L14.1647 14.3624ZM13.3737 13.8434C13.6735 14.0432 13.838 14.4249 13.7239 14.818L10.8428 13.9816C10.5787 14.8914 10.9599 15.8397 11.7096 16.3395L13.3737 13.8434ZM13.7184 14.8366C13.8342 14.4561 13.8667 14.0719 13.8667 13.7331H10.8667C10.8667 13.8093 10.8628 13.8666 10.8578 13.9075C10.8528 13.9487 10.8477 13.9653 10.8483 13.9631L13.7184 14.8366ZM13.8667 13.7331V10.3414H10.8667V13.7331H13.8667ZM13.8667 10.3414C13.8667 9.34547 13.5487 8.38337 12.8325 7.66725C12.1164 6.95112 11.1543 6.63314 10.1583 6.63314V9.63314C10.5207 9.63314 10.6628 9.74014 10.7112 9.78858C10.7597 9.83703 10.8667 9.97908 10.8667 10.3414H13.8667ZM10.1583 6.63314H4.5V9.63314H10.1583V6.63314ZM4.5 6.63314C4.32201 6.63314 4.16517 6.64832 4.08087 6.65598L4.35247 9.64366C4.40115 9.63924 4.42915 9.63676 4.45512 9.63502C4.47845 9.63347 4.49182 9.63314 4.5 9.63314V6.63314ZM4.14532 6.65152C4.36143 6.64123 4.5735 6.71784 4.72943 6.85428L2.75392 9.11201C3.17652 9.48178 3.72191 9.67508 4.28802 9.64812L4.14532 6.65152ZM4.72943 6.85428C4.95817 7.05442 5.04167 7.31832 5.04167 7.52482H2.04167C2.04167 8.08132 2.25852 8.67854 2.75392 9.11201L4.72943 6.85428ZM5.04167 7.52482V5.21647H2.04167V7.52482H5.04167ZM5.04167 5.21647C5.04167 4.35114 5.33868 3.70328 5.76692 3.27505C6.19515 2.84681 6.84301 2.5498 7.70834 2.5498V-0.450195C6.12367 -0.450195 4.68819 0.111129 3.64559 1.15373C2.603 2.19633 2.04167 3.6318 2.04167 5.21647H5.04167ZM7.70834 2.5498H14.7917V-0.450195H7.70834V2.5498ZM14.7917 2.5498C15.657 2.5498 16.3049 2.84681 16.7331 3.27505C17.1613 3.70328 17.4583 4.35114 17.4583 5.21647H20.4583C20.4583 3.6318 19.897 2.19633 18.8544 1.15373C17.8118 0.111129 16.3763 -0.450195 14.7917 -0.450195V2.5498ZM17.4583 5.21647V9.46645H20.4583V5.21647H17.4583ZM17.4583 9.46645C17.4583 10.3415 17.166 10.9968 16.7513 11.4023L18.8487 13.5473C19.934 12.4861 20.4583 11.0081 20.4583 9.46645H17.4583ZM16.7321 11.4215C16.3967 11.7615 15.8886 12.0222 15.2338 12.1026L15.5995 15.0803C16.8447 14.9274 18.0033 14.4048 18.868 13.5281L16.7321 11.4215ZM13.9167 13.5915V14.5164H16.9167V13.5915H13.9167ZM13.9167 14.5164C13.9167 14.4566 13.9518 14.4035 13.9972 14.3791L15.4195 17.0205C16.3315 16.5294 16.9167 15.5763 16.9167 14.5164H13.9167ZM14.0834 14.3362C14.0753 14.3399 14.0689 14.3418 14.0659 14.3425C14.0648 14.3427 14.0653 14.3425 14.0679 14.3422C14.0704 14.3419 14.0755 14.3415 14.0833 14.3415V17.3415C14.5254 17.3415 14.9543 17.2371 15.3333 17.0634L14.0834 14.3362ZM12.8413 15.5784L13.383 15.8867L14.867 13.2795L14.3254 12.9712L12.8413 15.5784ZM14.7958 15.9248C15.1503 15.7475 15.407 15.4582 15.5476 15.13C15.6752 14.832 15.675 14.5735 15.675 14.5081H12.675C12.675 14.5085 12.675 14.4986 12.6752 14.4863C12.6754 14.4734 12.6758 14.4575 12.6767 14.4391C12.6785 14.4023 12.6821 14.3579 12.6893 14.3078C12.7035 14.2084 12.732 14.084 12.7899 13.9487C12.918 13.6497 13.1497 13.3937 13.4542 13.2415L14.7958 15.9248ZM15.675 14.5081V12.9998H12.675V14.5081H15.675ZM15.675 12.9998C15.675 13.4865 15.2868 13.8748 14.8 13.8748V10.8748C13.6299 10.8748 12.675 11.8297 12.675 12.9998H15.675ZM14.8 13.8748C15.9848 13.8748 17.1452 13.4981 17.9943 12.6352L15.8558 10.5311C15.6881 10.7016 15.3652 10.8748 14.8 10.8748V13.8748ZM17.9771 12.6523C18.8504 11.7928 19.2167 10.6392 19.2167 9.45811H16.2167C16.2167 10.027 16.0496 10.3401 15.8729 10.514L17.9771 12.6523ZM19.2167 9.45811V5.20813H16.2167V9.45811H19.2167ZM19.2167 5.20813C19.2167 3.99337 18.8195 2.85836 17.9846 2.02351C17.1498 1.18867 16.0148 0.791463 14.8 0.791463V3.79146C15.3602 3.79146 15.6836 3.96509 15.8633 4.14483C16.043 4.32457 16.2167 4.64789 16.2167 5.20813H19.2167ZM14.8 0.791463H7.71667V3.79146H14.8V0.791463ZM7.71667 0.791463C6.50191 0.791463 5.36689 1.18867 4.53205 2.02351C3.6972 2.85836 3.3 3.99337 3.3 5.20813H6.3C6.3 4.64789 6.47363 4.32457 6.65337 4.14483C6.83311 3.96509 7.15643 3.79146 7.71667 3.79146V0.791463ZM3.3 5.20813V6.8748H6.3V5.20813H3.3ZM4.8 8.3748H10.1667V5.3748H4.8V8.3748ZM10.1667 8.3748C10.8236 8.3748 11.2944 8.59884 11.5977 8.90213C11.901 9.20542 12.125 9.67623 12.125 10.3332H15.125C15.125 8.95674 14.6366 7.69837 13.719 6.78082C12.8015 5.86326 11.5431 5.3748 10.1667 5.3748V8.3748ZM12.125 10.3332V13.7248H15.125V10.3332H12.125ZM12.1264 13.6596C12.1176 13.8636 12.1112 13.973 12.0984 14.0627L15.0683 14.4869C15.1055 14.2266 15.1158 13.9693 15.1236 13.7899L12.1264 13.6596Z" fill="#545555" mask="url(#path-1-inside-1_2539_6512)"/>
<mask id="path-3-inside-2_2539_6512" fill="white">
<path d="M5.05834 18.9583C4.87501 18.9583 4.68334 18.9167 4.50834 18.825C4.11667 18.6167 3.875 18.2167 3.875 17.7667V17.1333C3.14167 17.0167 2.49167 16.7083 2.00834 16.225C1.37501 15.5916 1.04167 14.725 1.04167 13.725V10.3334C1.04167 8.45002 2.275 7.06668 4.10833 6.89168C4.24167 6.88335 4.36667 6.875 4.5 6.875H10.1583C12.1917 6.875 13.6167 8.30002 13.6167 10.3334V13.725C13.6167 14.0916 13.575 14.4333 13.4833 14.7417C13.1083 16.2417 11.8333 17.1833 10.1583 17.1833H8.08334L5.725 18.75C5.525 18.8917 5.29168 18.9583 5.05834 18.9583ZM4.5 8.125C4.4 8.125 4.30834 8.13335 4.21667 8.14168C3.01667 8.25002 2.29167 9.07502 2.29167 10.3334V13.725C2.29167 14.3916 2.50001 14.95 2.89167 15.3416C3.27501 15.725 3.83333 15.9333 4.5 15.9333C4.84167 15.9333 5.125 16.2167 5.125 16.5583V17.65L7.54167 16.0417C7.64167 15.975 7.76667 15.9333 7.89167 15.9333H10.1583C11.2583 15.9333 12.0333 15.3833 12.275 14.4167C12.3333 14.2083 12.3667 13.975 12.3667 13.725V10.3334C12.3667 8.97502 11.5167 8.125 10.1583 8.125H4.5Z"/>
</mask>
<path d="M5.05834 18.9583C4.87501 18.9583 4.68334 18.9167 4.50834 18.825C4.11667 18.6167 3.875 18.2167 3.875 17.7667V17.1333C3.14167 17.0167 2.49167 16.7083 2.00834 16.225C1.37501 15.5916 1.04167 14.725 1.04167 13.725V10.3334C1.04167 8.45002 2.275 7.06668 4.10833 6.89168C4.24167 6.88335 4.36667 6.875 4.5 6.875H10.1583C12.1917 6.875 13.6167 8.30002 13.6167 10.3334V13.725C13.6167 14.0916 13.575 14.4333 13.4833 14.7417C13.1083 16.2417 11.8333 17.1833 10.1583 17.1833H8.08334L5.725 18.75C5.525 18.8917 5.29168 18.9583 5.05834 18.9583ZM4.5 8.125C4.4 8.125 4.30834 8.13335 4.21667 8.14168C3.01667 8.25002 2.29167 9.07502 2.29167 10.3334V13.725C2.29167 14.3916 2.50001 14.95 2.89167 15.3416C3.27501 15.725 3.83333 15.9333 4.5 15.9333C4.84167 15.9333 5.125 16.2167 5.125 16.5583V17.65L7.54167 16.0417C7.64167 15.975 7.76667 15.9333 7.89167 15.9333H10.1583C11.2583 15.9333 12.0333 15.3833 12.275 14.4167C12.3333 14.2083 12.3667 13.975 12.3667 13.725V10.3334C12.3667 8.97502 11.5167 8.125 10.1583 8.125H4.5Z" fill="#545555"/>
<path d="M4.50834 18.825L3.80391 20.1494L3.81233 20.1538L4.50834 18.825ZM3.875 17.1333H5.375V15.8531L4.11067 15.652L3.875 17.1333ZM4.10833 6.89168L4.01476 5.3946L3.99025 5.39614L3.9658 5.39847L4.10833 6.89168ZM13.4833 14.7417L12.0455 14.3142L12.0361 14.3458L12.0281 14.3779L13.4833 14.7417ZM8.08334 17.1833V15.6833H7.63051L7.25332 15.9339L8.08334 17.1833ZM5.725 18.75L4.89499 17.5006L4.87629 17.513L4.85797 17.526L5.725 18.75ZM4.21667 8.14168L4.35154 9.63561L4.35247 9.63552L4.21667 8.14168ZM5.125 17.65H3.625V20.4501L5.95605 18.8987L5.125 17.65ZM7.54167 16.0417L8.37273 17.2904L8.37372 17.2897L7.54167 16.0417ZM12.275 14.4167L10.8306 14.0122L10.8249 14.0325L10.8198 14.0529L12.275 14.4167ZM5.05834 17.4583C5.09729 17.4583 5.14743 17.4665 5.20435 17.4963L3.81233 20.1538C4.21926 20.3669 4.65273 20.4583 5.05834 20.4583V17.4583ZM5.21276 17.5007C5.25749 17.5245 5.30027 17.5635 5.33104 17.6147C5.36191 17.6662 5.375 17.7205 5.375 17.7667H2.375C2.375 18.7699 2.92151 19.68 3.80392 20.1493L5.21276 17.5007ZM5.375 17.7667V17.1333H2.375V17.7667H5.375ZM4.11067 15.652C3.64425 15.5778 3.29803 15.3933 3.069 15.1643L0.947681 17.2856C1.68531 18.0233 2.63908 18.4556 3.63933 18.6147L4.11067 15.652ZM3.069 15.1643C2.75293 14.8482 2.54167 14.3811 2.54167 13.725H-0.458328C-0.458328 15.0689 -0.00291097 16.335 0.947681 17.2856L3.069 15.1643ZM2.54167 13.725V10.3334H-0.458328V13.725H2.54167ZM2.54167 10.3334C2.54167 9.19636 3.21371 8.4839 4.25087 8.3849L3.9658 5.39847C1.33628 5.64947 -0.458328 7.70368 -0.458328 10.3334H2.54167ZM4.2019 8.38876C4.3479 8.37964 4.42282 8.375 4.5 8.375V5.375C4.31052 5.375 4.13543 5.38706 4.01476 5.3946L4.2019 8.38876ZM4.5 8.375H10.1583V5.375H4.5V8.375ZM10.1583 8.375C10.8153 8.375 11.2861 8.59904 11.5893 8.90233C11.8926 9.20562 12.1167 9.67643 12.1167 10.3334H15.1167C15.1167 8.95694 14.6282 7.69858 13.7107 6.78102C12.7931 5.86347 11.5348 5.375 10.1583 5.375V8.375ZM12.1167 10.3334V13.725H15.1167V10.3334H12.1167ZM12.1167 13.725C12.1167 13.9818 12.0871 14.1745 12.0455 14.3142L14.9211 15.1691C15.0629 14.6921 15.1167 14.2015 15.1167 13.725H12.1167ZM12.0281 14.3779C11.8374 15.1407 11.2193 15.6833 10.1583 15.6833V18.6833C12.4474 18.6833 14.3792 17.3427 14.9385 15.1055L12.0281 14.3779ZM10.1583 15.6833H8.08334V18.6833H10.1583V15.6833ZM7.25332 15.9339L4.89499 17.5006L6.55501 19.9994L8.91335 18.4328L7.25332 15.9339ZM4.85797 17.526C4.93094 17.4743 5.00585 17.4583 5.05834 17.4583V20.4583C5.57751 20.4583 6.11906 20.3091 6.59203 19.974L4.85797 17.526ZM4.5 6.625C4.32201 6.625 4.16517 6.64018 4.08087 6.64784L4.35247 9.63552C4.40115 9.6311 4.42915 9.62862 4.45512 9.62689C4.47845 9.62533 4.49182 9.625 4.5 9.625V6.625ZM4.0818 6.64776C3.15921 6.73105 2.29976 7.10765 1.67723 7.81631C1.06004 8.5189 0.791672 9.41523 0.791672 10.3334H3.79167C3.79167 9.99314 3.8858 9.8478 3.93111 9.79623C3.97108 9.75072 4.07413 9.66065 4.35154 9.63561L4.0818 6.64776ZM0.791672 10.3334V13.725H3.79167V10.3334H0.791672ZM0.791672 13.725C0.791672 14.7061 1.10413 15.6754 1.83101 16.4023L3.95233 14.281C3.89589 14.2245 3.79167 14.0772 3.79167 13.725H0.791672ZM1.83101 16.4023C2.5525 17.1238 3.52384 17.4333 4.5 17.4333V14.4333C4.14283 14.4333 3.99752 14.3262 3.95233 14.281L1.83101 16.4023ZM4.5 17.4333C4.01324 17.4333 3.625 17.0451 3.625 16.5583H6.625C6.625 15.3882 5.67009 14.4333 4.5 14.4333V17.4333ZM3.625 16.5583V17.65H6.625V16.5583H3.625ZM5.95605 18.8987L8.37273 17.2904L6.71062 14.7929L4.29395 16.4013L5.95605 18.8987ZM8.37372 17.2897C8.24841 17.3733 8.08718 17.4333 7.89167 17.4333V14.4333C7.44617 14.4333 7.03494 14.5767 6.70962 14.7936L8.37372 17.2897ZM7.89167 17.4333H10.1583V14.4333H7.89167V17.4333ZM10.1583 17.4333C10.9565 17.4333 11.7468 17.2323 12.4107 16.7579C13.0859 16.2753 13.5303 15.5801 13.7302 14.7805L10.8198 14.0529C10.778 14.2199 10.7141 14.283 10.6664 14.3171C10.6073 14.3593 10.4602 14.4333 10.1583 14.4333V17.4333ZM13.7194 14.8211C13.8158 14.4769 13.8667 14.1072 13.8667 13.725H10.8667C10.8667 13.8427 10.8508 13.9397 10.8306 14.0122L13.7194 14.8211ZM13.8667 13.725V10.3334H10.8667V13.725H13.8667ZM13.8667 10.3334C13.8667 9.33739 13.5487 8.37528 12.8325 7.65915C12.1164 6.94301 11.1543 6.625 10.1583 6.625V9.625C10.5207 9.625 10.6628 9.732 10.7112 9.78045C10.7597 9.82891 10.8667 9.97099 10.8667 10.3334H13.8667ZM10.1583 6.625H4.5V9.625H10.1583V6.625Z" fill="#545555" mask="url(#path-3-inside-2_2539_6512)"/>
</svg>
