<svg width="20" height="20" viewBox="0 0 20 20" fill="none" xmlns="http://www.w3.org/2000/svg">
<path d="M16.0833 6.60023V10.8919C16.0833 13.4586 14.6167 14.5586 12.4167 14.5586H5.09165C4.71665 14.5586 4.35832 14.5253 4.02498 14.4503C3.81665 14.4169 3.61666 14.3586 3.43332 14.2919C2.18332 13.8253 1.42499 12.7419 1.42499 10.8919V6.60023C1.42499 4.03356 2.89165 2.93359 5.09165 2.93359H12.4167C14.2833 2.93359 15.625 3.72526 15.9833 5.53359C16.0417 5.86692 16.0833 6.20856 16.0833 6.60023Z" stroke="#323333" stroke-width="1.5" stroke-miterlimit="10" stroke-linecap="round" stroke-linejoin="round"/>
<path d="M18.5842 9.09984V13.3915C18.5842 15.9582 17.1176 17.0582 14.9176 17.0582H7.59254C6.97588 17.0582 6.41755 16.9749 5.93422 16.7915C4.94255 16.4249 4.26755 15.6665 4.02588 14.4499C4.35921 14.5249 4.71754 14.5582 5.09254 14.5582H12.4176C14.6176 14.5582 16.0842 13.4582 16.0842 10.8915V6.59984C16.0842 6.20818 16.0509 5.8582 15.9842 5.5332C17.5676 5.86654 18.5842 6.98318 18.5842 9.09984Z" stroke="#323333" stroke-width="1.5" stroke-miterlimit="10" stroke-linecap="round" stroke-linejoin="round"/>
<path d="M8.74872 10.9498C9.96374 10.9498 10.9487 9.96484 10.9487 8.74982C10.9487 7.53479 9.96374 6.5498 8.74872 6.5498C7.53369 6.5498 6.54871 7.53479 6.54871 8.74982C6.54871 9.96484 7.53369 10.9498 8.74872 10.9498Z" stroke="#323333" stroke-width="1.5" stroke-miterlimit="10" stroke-linecap="round" stroke-linejoin="round"/>
<path d="M3.98334 6.91699V10.5837" stroke="#323333" stroke-width="1.5" stroke-miterlimit="10" stroke-linecap="round" stroke-linejoin="round"/>
<path d="M13.5181 6.91699V10.5837" stroke="#323333" stroke-width="1.5" stroke-miterlimit="10" stroke-linecap="round" stroke-linejoin="round"/>
</svg>
