<svg width="16" height="16" viewBox="0 0 16 16" fill="none" xmlns="http://www.w3.org/2000/svg">
<g id="vuesax/bold/route-square">
<g id="route-square">
<path id="Vector" d="M10.7933 1.33325H5.20659C2.77992 1.33325 1.33325 2.77992 1.33325 5.20659V10.7866C1.33325 13.2199 2.77992 14.6666 5.20659 14.6666H10.7866C13.2133 14.6666 14.6599 13.2199 14.6599 10.7933V5.20659C14.6666 2.77992 13.2199 1.33325 10.7933 1.33325ZM11.5666 6.03325L10.0066 11.0599C9.63325 12.2533 7.95992 12.2733 7.56659 11.0866L7.09992 9.70659C6.97325 9.32659 6.67325 9.01992 6.29325 8.89992L4.90659 8.43325C3.73325 8.03992 3.74659 6.35325 4.93992 5.99325L9.96659 4.42659C10.9533 4.12659 11.8799 5.05325 11.5666 6.03325Z" fill="#45B8E9"/>
</g>
</g>
</svg>
