<svg width="20" height="20" viewBox="0 0 20 20" fill="none" xmlns="http://www.w3.org/2000/svg">
<mask id="path-1-inside-1_2539_888" fill="white">
<path d="M10 18.8587C9.44167 18.8587 8.875 18.7337 8.43334 18.4753L3.85 15.8337C1.98334 14.5753 1.86667 14.3837 1.86667 12.4087V7.59199C1.86667 5.61699 1.975 5.42533 3.80834 4.18366L8.425 1.51699C9.3 1.00866 10.675 1.00866 11.55 1.51699L16.15 4.16699C18.0167 5.42533 18.1333 5.61699 18.1333 7.59199V12.4003C18.1333 14.3753 18.025 14.567 16.1917 15.8087L11.575 18.4753C11.125 18.7337 10.5583 18.8587 10 18.8587ZM10 2.39199C9.65 2.39199 9.30834 2.45866 9.06667 2.60033L4.48334 5.25033C3.125 6.16699 3.125 6.16699 3.125 7.59199V12.4003C3.125 13.8253 3.125 13.8253 4.51667 14.767L9.06667 17.392C9.55834 17.6753 10.45 17.6753 10.9417 17.392L15.525 14.742C16.875 13.8253 16.875 13.8253 16.875 12.4003V7.59199C16.875 6.16699 16.875 6.16699 15.4833 5.22533L10.9333 2.60033C10.6917 2.45866 10.35 2.39199 10 2.39199Z"/>
</mask>
<path d="M10 18.8587C9.44167 18.8587 8.875 18.7337 8.43334 18.4753L3.85 15.8337C1.98334 14.5753 1.86667 14.3837 1.86667 12.4087V7.59199C1.86667 5.61699 1.975 5.42533 3.80834 4.18366L8.425 1.51699C9.3 1.00866 10.675 1.00866 11.55 1.51699L16.15 4.16699C18.0167 5.42533 18.1333 5.61699 18.1333 7.59199V12.4003C18.1333 14.3753 18.025 14.567 16.1917 15.8087L11.575 18.4753C11.125 18.7337 10.5583 18.8587 10 18.8587ZM10 2.39199C9.65 2.39199 9.30834 2.45866 9.06667 2.60033L4.48334 5.25033C3.125 6.16699 3.125 6.16699 3.125 7.59199V12.4003C3.125 13.8253 3.125 13.8253 4.51667 14.767L9.06667 17.392C9.55834 17.6753 10.45 17.6753 10.9417 17.392L15.525 14.742C16.875 13.8253 16.875 13.8253 16.875 12.4003V7.59199C16.875 6.16699 16.875 6.16699 15.4833 5.22533L10.9333 2.60033C10.6917 2.45866 10.35 2.39199 10 2.39199Z" fill="#545555"/>
<path d="M8.43334 18.4753L9.19068 17.1805L9.18237 17.1757L8.43334 18.4753ZM3.85 15.8337L3.01156 17.0774L3.05528 17.1069L3.10096 17.1333L3.85 15.8337ZM3.80834 4.18366L3.05808 2.88477L3.01161 2.91161L2.96719 2.9417L3.80834 4.18366ZM8.425 1.51699L9.17526 2.81588L9.1785 2.814L8.425 1.51699ZM11.55 1.51699L10.7965 2.81401L10.8012 2.81674L11.55 1.51699ZM16.15 4.16699L16.9884 2.9232L16.9446 2.89364L16.8988 2.86724L16.15 4.16699ZM16.1917 15.8087L16.9419 17.1075L16.9884 17.0807L17.0328 17.0506L16.1917 15.8087ZM11.575 18.4753L12.3218 19.7762L12.3253 19.7742L11.575 18.4753ZM9.06667 2.60033L9.81749 3.89892L9.82525 3.89437L9.06667 2.60033ZM4.48334 5.25033L3.73253 3.95176L3.68743 3.97783L3.64426 4.00696L4.48334 5.25033ZM4.51667 14.767L3.67605 16.0093L3.72055 16.0394L3.76708 16.0663L4.51667 14.767ZM9.06667 17.392L8.31708 18.6913L8.31772 18.6916L9.06667 17.392ZM10.9417 17.392L11.6906 18.6916L11.6925 18.6906L10.9417 17.392ZM15.525 14.742L16.2758 16.0406L16.3228 16.0134L16.3676 15.983L15.525 14.742ZM15.4833 5.22533L16.3239 3.983L16.2795 3.95289L16.2329 3.92605L15.4833 5.22533ZM10.9333 2.60033L10.1747 3.8944L10.1838 3.8996L10.9333 2.60033ZM10 17.3587C9.64063 17.3587 9.35077 17.2742 9.19066 17.1805L7.67601 19.7701C8.39924 20.1931 9.24271 20.3587 10 20.3587V17.3587ZM9.18237 17.1757L4.59904 14.5341L3.10096 17.1333L7.6843 19.7749L9.18237 17.1757ZM4.68845 14.5899C4.21546 14.271 3.91678 14.0614 3.70767 13.8887C3.50864 13.7244 3.46425 13.6517 3.45552 13.6367C3.43148 13.5953 3.36667 13.4851 3.36667 12.4087H0.366669C0.366669 13.3072 0.360186 14.2803 0.861152 15.1431C1.33267 15.9552 2.16987 16.5101 3.01156 17.0774L4.68845 14.5899ZM3.36667 12.4087V7.59199H0.366669V12.4087H3.36667ZM3.36667 7.59199C3.36667 6.51118 3.42927 6.39759 3.45348 6.35508C3.46029 6.34312 3.50058 6.27407 3.69212 6.11436C3.89448 5.94563 4.18526 5.74003 4.64948 5.42562L2.96719 2.9417C2.14005 3.50189 1.31113 4.05468 0.846525 4.87057C0.358231 5.72806 0.366669 6.69781 0.366669 7.59199H3.36667ZM4.5586 5.48255L9.17526 2.81588L7.67474 0.218104L3.05808 2.88477L4.5586 5.48255ZM9.1785 2.814C9.33906 2.72073 9.62789 2.63574 9.9875 2.63574C10.3471 2.63574 10.6359 2.72073 10.7965 2.814L12.3035 0.219982C11.5891 -0.195078 10.7529 -0.364258 9.9875 -0.364258C9.22212 -0.364258 8.38595 -0.195078 7.6715 0.219982L9.1785 2.814ZM10.8012 2.81674L15.4012 5.46674L16.8988 2.86724L12.2988 0.217244L10.8012 2.81674ZM15.3116 5.41078C15.7845 5.72962 16.0832 5.93926 16.2923 6.11193C16.4914 6.27627 16.5358 6.34891 16.5445 6.36395C16.5685 6.40534 16.6333 6.51552 16.6333 7.59199H19.6333C19.6333 6.69346 19.6398 5.72031 19.1389 4.85754C18.6673 4.04548 17.8301 3.49059 16.9884 2.9232L15.3116 5.41078ZM16.6333 7.59199V12.4003H19.6333V7.59199H16.6333ZM16.6333 12.4003C16.6333 13.4811 16.5707 13.5947 16.5465 13.6372C16.5397 13.6492 16.4994 13.7182 16.3079 13.878C16.1055 14.0467 15.8147 14.2523 15.3505 14.5667L17.0328 17.0506C17.86 16.4904 18.6889 15.9376 19.1535 15.1218C19.6418 14.2643 19.6333 13.2945 19.6333 12.4003H16.6333ZM15.4414 14.5098L10.8247 17.1764L12.3253 19.7742L16.9419 17.1075L15.4414 14.5098ZM10.8282 17.1744C10.6523 17.2754 10.3562 17.3587 10 17.3587V20.3587C10.7605 20.3587 11.5977 20.1919 12.3218 19.7762L10.8282 17.1744ZM10 0.891992C9.50303 0.891992 8.86481 0.979924 8.30809 1.30628L9.82525 3.89437C9.79789 3.91041 9.78154 3.91635 9.78094 3.91657C9.78 3.91691 9.78891 3.91364 9.80897 3.90932C9.8511 3.90023 9.91677 3.89199 10 3.89199V0.891992ZM8.31586 1.30176L3.73253 3.95176L5.23415 6.5489L9.81748 3.8989L8.31586 1.30176ZM3.64426 4.00696C3.3239 4.22315 3.0133 4.43154 2.76718 4.62632C2.51141 4.82875 2.21826 5.09694 1.99729 5.47789C1.76727 5.87443 1.68694 6.26802 1.6535 6.60629C1.62331 6.91167 1.625 7.26502 1.625 7.59199H4.625C4.625 7.20647 4.62669 7.02544 4.63895 6.90139C4.64796 6.81023 4.65253 6.87935 4.5923 6.98318C4.54112 7.07142 4.50266 7.07868 4.62892 6.97875C4.76483 6.87119 4.9636 6.73583 5.32241 6.49369L3.64426 4.00696ZM1.625 7.59199V12.4003H4.625V7.59199H1.625ZM1.625 12.4003C1.625 12.7267 1.62324 13.082 1.65435 13.3897C1.689 13.7325 1.77213 14.1276 2.00594 14.5252C2.22906 14.9047 2.52402 15.1732 2.78196 15.3771C3.03146 15.5743 3.34692 15.7866 3.67605 16.0093L5.35728 13.5247C4.99058 13.2765 4.78417 13.1357 4.64226 13.0235C4.5088 12.918 4.54282 12.921 4.59198 13.0046C4.65184 13.1064 4.64798 13.1755 4.63914 13.088C4.62676 12.9656 4.625 12.7864 4.625 12.4003H1.625ZM3.76708 16.0663L8.31708 18.6913L9.81625 16.0927L5.26625 13.4677L3.76708 16.0663ZM8.31772 18.6916C8.8639 19.0064 9.49424 19.1045 10.0042 19.1045C10.5141 19.1045 11.1444 19.0064 11.6906 18.6916L10.1927 16.0923C10.2327 16.0693 10.2365 16.0757 10.187 16.0866C10.1419 16.0966 10.078 16.1045 10.0042 16.1045C9.93029 16.1045 9.86643 16.0966 9.8213 16.0866C9.77183 16.0757 9.77562 16.0693 9.81562 16.0923L8.31772 18.6916ZM11.6925 18.6906L16.2758 16.0406L14.7742 13.4434L10.1909 16.0934L11.6925 18.6906ZM16.3676 15.983C16.6859 15.7668 16.9949 15.5582 17.2399 15.3632C17.4946 15.1603 17.7862 14.8918 18.0058 14.511C18.234 14.1151 18.3136 13.7225 18.3467 13.3851C18.3767 13.0803 18.375 12.7275 18.375 12.4003H15.375C15.375 12.7857 15.3733 12.9672 15.3611 13.0918C15.352 13.1839 15.3472 13.1158 15.4067 13.0126C15.4575 12.9245 15.496 12.9169 15.3711 13.0164C15.2363 13.1237 15.0391 13.2588 14.6824 13.501L16.3676 15.983ZM18.375 12.4003V7.59199H15.375V12.4003H18.375ZM18.375 7.59199C18.375 7.26558 18.3768 6.91036 18.3457 6.60258C18.311 6.25987 18.2279 5.86471 17.9941 5.46708C17.7709 5.08764 17.476 4.81909 17.218 4.61521C16.9685 4.418 16.6531 4.20571 16.3239 3.983L14.6427 6.46765C15.0094 6.71578 15.2158 6.85661 15.3577 6.96878C15.4912 7.07427 15.4572 7.07134 15.408 6.98774C15.3482 6.88595 15.352 6.81683 15.3609 6.90432C15.3732 7.02675 15.375 7.20591 15.375 7.59199H18.375ZM16.2329 3.92605L11.6829 1.30105L10.1838 3.8996L14.7338 6.5246L16.2329 3.92605ZM11.6919 1.30628C11.1352 0.979924 10.497 0.891992 10 0.891992V3.89199C10.0832 3.89199 10.1489 3.90023 10.191 3.90932C10.2111 3.91364 10.22 3.91691 10.2191 3.91657C10.2185 3.91635 10.2021 3.91041 10.1748 3.89437L11.6919 1.30628Z" fill="#545555" mask="url(#path-1-inside-1_2539_888)"/>
<mask id="path-3-inside-2_2539_888" fill="white">
<path d="M10 13.125C8.275 13.125 6.875 11.725 6.875 10C6.875 8.275 8.275 6.875 10 6.875C11.725 6.875 13.125 8.275 13.125 10C13.125 11.725 11.725 13.125 10 13.125ZM10 8.125C8.96667 8.125 8.125 8.96667 8.125 10C8.125 11.0333 8.96667 11.875 10 11.875C11.0333 11.875 11.875 11.0333 11.875 10C11.875 8.96667 11.0333 8.125 10 8.125Z"/>
</mask>
<path d="M10 13.125C8.275 13.125 6.875 11.725 6.875 10C6.875 8.275 8.275 6.875 10 6.875C11.725 6.875 13.125 8.275 13.125 10C13.125 11.725 11.725 13.125 10 13.125ZM10 8.125C8.96667 8.125 8.125 8.96667 8.125 10C8.125 11.0333 8.96667 11.875 10 11.875C11.0333 11.875 11.875 11.0333 11.875 10C11.875 8.96667 11.0333 8.125 10 8.125Z" fill="#323333"/>
<path d="M10 11.625C9.10343 11.625 8.375 10.8966 8.375 10H5.375C5.375 12.5534 7.44657 14.625 10 14.625V11.625ZM8.375 10C8.375 9.10343 9.10343 8.375 10 8.375V5.375C7.44657 5.375 5.375 7.44657 5.375 10H8.375ZM10 8.375C10.8966 8.375 11.625 9.10343 11.625 10H14.625C14.625 7.44657 12.5534 5.375 10 5.375V8.375ZM11.625 10C11.625 10.8966 10.8966 11.625 10 11.625V14.625C12.5534 14.625 14.625 12.5534 14.625 10H11.625ZM10 6.625C8.13824 6.625 6.625 8.13824 6.625 10H9.625C9.625 9.79509 9.79509 9.625 10 9.625V6.625ZM6.625 10C6.625 11.8618 8.13824 13.375 10 13.375V10.375C9.79509 10.375 9.625 10.2049 9.625 10H6.625ZM10 13.375C11.8618 13.375 13.375 11.8618 13.375 10H10.375C10.375 10.2049 10.2049 10.375 10 10.375V13.375ZM13.375 10C13.375 8.13824 11.8618 6.625 10 6.625V9.625C10.2049 9.625 10.375 9.79509 10.375 10H13.375Z" fill="#545555" mask="url(#path-3-inside-2_2539_888)"/>
</svg>
