<svg width="20" height="20" viewBox="0 0 20 20" fill="none" xmlns="http://www.w3.org/2000/svg">
<mask id="path-1-inside-1_2576_6546" fill="white">
<path d="M14.7167 18.8913C14.275 18.8913 13.7083 18.7496 13 18.3329L10.5083 16.8579C10.25 16.7079 9.75 16.7079 9.5 16.8579L7 18.3329C5.525 19.2079 4.65833 18.8579 4.26666 18.5746C3.88333 18.2913 3.28333 17.5663 3.675 15.8996L4.26666 13.3413C4.33333 13.0746 4.2 12.6163 4 12.4163L1.93333 10.3496C0.899996 9.31628 0.98333 8.43294 1.125 7.99961C1.26666 7.56628 1.71666 6.79961 3.15 6.55794L5.80833 6.11628C6.05833 6.07461 6.41666 5.80794 6.525 5.58294L8 2.64128C8.66666 1.29961 9.54166 1.09961 10 1.09961C10.4583 1.09961 11.3333 1.29961 12 2.64128L13.4667 5.57461C13.5833 5.79961 13.9417 6.06628 14.1917 6.10794L16.85 6.54961C18.2917 6.79128 18.7417 7.55794 18.875 7.99128C19.0083 8.42461 19.0917 9.30794 18.0667 10.3413L16 12.4163C15.8 12.6163 15.675 13.0663 15.7333 13.3413L16.325 15.8996C16.7083 17.5663 16.1167 18.2913 15.7333 18.5746C15.525 18.7246 15.1917 18.8913 14.7167 18.8913ZM10 15.4913C10.4083 15.4913 10.8167 15.5913 11.1417 15.7829L13.6333 17.2579C14.3583 17.6913 14.8167 17.6913 14.9917 17.5663C15.1667 17.4413 15.2917 16.9996 15.1083 16.1829L14.5167 13.6246C14.3583 12.9329 14.6167 12.0413 15.1167 11.5329L17.1833 9.46628C17.5917 9.05794 17.775 8.65794 17.6917 8.38294C17.6 8.10794 17.2167 7.88294 16.65 7.79128L13.9917 7.34961C13.35 7.24128 12.65 6.72461 12.3583 6.14128L10.8917 3.20794C10.625 2.67461 10.2917 2.35794 10 2.35794C9.70833 2.35794 9.375 2.67461 9.11666 3.20794L7.64166 6.14128C7.35 6.72461 6.65 7.24128 6.00833 7.34961L3.35833 7.79128C2.79166 7.88294 2.40833 8.10794 2.31666 8.38294C2.225 8.65794 2.41666 9.06628 2.825 9.46628L4.89166 11.5329C5.39166 12.0329 5.65 12.9329 5.49166 13.6246L4.9 16.1829C4.70833 17.0079 4.84166 17.4413 5.01666 17.5663C5.19166 17.6913 5.64166 17.6829 6.375 17.2579L8.86666 15.7829C9.18333 15.5913 9.59166 15.4913 10 15.4913Z"/>
</mask>
<path d="M14.7167 18.8913C14.275 18.8913 13.7083 18.7496 13 18.3329L10.5083 16.8579C10.25 16.7079 9.75 16.7079 9.5 16.8579L7 18.3329C5.525 19.2079 4.65833 18.8579 4.26666 18.5746C3.88333 18.2913 3.28333 17.5663 3.675 15.8996L4.26666 13.3413C4.33333 13.0746 4.2 12.6163 4 12.4163L1.93333 10.3496C0.899996 9.31628 0.98333 8.43294 1.125 7.99961C1.26666 7.56628 1.71666 6.79961 3.15 6.55794L5.80833 6.11628C6.05833 6.07461 6.41666 5.80794 6.525 5.58294L8 2.64128C8.66666 1.29961 9.54166 1.09961 10 1.09961C10.4583 1.09961 11.3333 1.29961 12 2.64128L13.4667 5.57461C13.5833 5.79961 13.9417 6.06628 14.1917 6.10794L16.85 6.54961C18.2917 6.79128 18.7417 7.55794 18.875 7.99128C19.0083 8.42461 19.0917 9.30794 18.0667 10.3413L16 12.4163C15.8 12.6163 15.675 13.0663 15.7333 13.3413L16.325 15.8996C16.7083 17.5663 16.1167 18.2913 15.7333 18.5746C15.525 18.7246 15.1917 18.8913 14.7167 18.8913ZM10 15.4913C10.4083 15.4913 10.8167 15.5913 11.1417 15.7829L13.6333 17.2579C14.3583 17.6913 14.8167 17.6913 14.9917 17.5663C15.1667 17.4413 15.2917 16.9996 15.1083 16.1829L14.5167 13.6246C14.3583 12.9329 14.6167 12.0413 15.1167 11.5329L17.1833 9.46628C17.5917 9.05794 17.775 8.65794 17.6917 8.38294C17.6 8.10794 17.2167 7.88294 16.65 7.79128L13.9917 7.34961C13.35 7.24128 12.65 6.72461 12.3583 6.14128L10.8917 3.20794C10.625 2.67461 10.2917 2.35794 10 2.35794C9.70833 2.35794 9.375 2.67461 9.11666 3.20794L7.64166 6.14128C7.35 6.72461 6.65 7.24128 6.00833 7.34961L3.35833 7.79128C2.79166 7.88294 2.40833 8.10794 2.31666 8.38294C2.225 8.65794 2.41666 9.06628 2.825 9.46628L4.89166 11.5329C5.39166 12.0329 5.65 12.9329 5.49166 13.6246L4.9 16.1829C4.70833 17.0079 4.84166 17.4413 5.01666 17.5663C5.19166 17.6913 5.64166 17.6829 6.375 17.2579L8.86666 15.7829C9.18333 15.5913 9.59166 15.4913 10 15.4913Z" fill="#545555"/>
<path d="M13 18.3329L12.2359 19.6237L12.2395 19.6258L13 18.3329ZM10.5083 16.8579L11.2725 15.5671L11.2615 15.5608L10.5083 16.8579ZM9.5 16.8579L10.2622 18.1499L10.2717 18.1442L9.5 16.8579ZM7 18.3329L6.23777 17.041L6.23469 17.0429L7 18.3329ZM4.26666 18.5746L3.37508 19.7809L3.38126 19.7854L3.38748 19.7899L4.26666 18.5746ZM3.675 15.8996L5.13523 16.2428L5.13642 16.2376L3.675 15.8996ZM4.26666 13.3413L2.81145 12.9775L2.80823 12.9904L2.80524 13.0033L4.26666 13.3413ZM4 12.4163L5.06066 11.3556L4 12.4163ZM1.93333 10.3496L0.87267 11.4103H0.87267L1.93333 10.3496ZM3.15 6.55794L2.90415 5.07822L2.90061 5.07882L3.15 6.55794ZM5.80833 6.11628L6.05418 7.59599L6.05493 7.59587L5.80833 6.11628ZM6.525 5.58294L5.18412 4.9106L5.17872 4.92137L5.17349 4.93222L6.525 5.58294ZM8 2.64128L9.34089 3.31362L9.3433 3.30876L8 2.64128ZM12 2.64128L10.6567 3.30876L10.6584 3.3121L12 2.64128ZM13.4667 5.57461L12.125 6.24543L12.13 6.25529L12.135 6.26508L13.4667 5.57461ZM14.1917 6.10794L13.9451 7.58753L13.9458 7.58766L14.1917 6.10794ZM16.85 6.54961L17.098 5.07025L17.0958 5.06989L16.85 6.54961ZM18.0667 10.3413L19.1295 11.3998L19.1316 11.3976L18.0667 10.3413ZM16 12.4163L17.0607 13.4769L17.0628 13.4748L16 12.4163ZM15.7333 13.3413L14.266 13.6525L14.2688 13.6659L14.2719 13.6793L15.7333 13.3413ZM16.325 15.8996L17.7868 15.5634L17.7864 15.5616L16.325 15.8996ZM15.7333 18.5746L16.6098 19.7919L16.6174 19.7864L16.6249 19.7809L15.7333 18.5746ZM11.1417 15.7829L11.9058 14.4922L11.9036 14.4909L11.1417 15.7829ZM13.6333 17.2579L14.4029 15.9704L14.3974 15.9672L13.6333 17.2579ZM15.1083 16.1829L16.5719 15.8544L16.5698 15.845L15.1083 16.1829ZM14.5167 13.6246L13.0545 13.9593L13.0552 13.9626L14.5167 13.6246ZM15.1167 11.5329L14.056 10.4722L14.0473 10.4811L15.1167 11.5329ZM17.1833 9.46628L18.244 10.5269V10.5269L17.1833 9.46628ZM17.6917 8.38294L19.1272 7.94793L19.1212 7.92818L19.1147 7.9086L17.6917 8.38294ZM16.65 7.79128L16.4041 9.27101L16.4105 9.27203L16.65 7.79128ZM13.9917 7.34961L13.742 8.82868L13.7458 8.82932L13.9917 7.34961ZM12.3583 6.14128L13.7 5.47046L12.3583 6.14128ZM10.8917 3.20794L9.55002 3.87876V3.87876L10.8917 3.20794ZM9.11666 3.20794L10.4568 3.88181L10.4618 3.87186L10.4666 3.86184L9.11666 3.20794ZM7.64166 6.14128L6.30155 5.46741L6.30002 5.47046L7.64166 6.14128ZM6.00833 7.34961L6.25493 8.8292L6.25804 8.82868L6.00833 7.34961ZM3.35833 7.79128L3.59787 9.27204L3.60493 9.27087L3.35833 7.79128ZM2.825 9.46628L3.88566 8.40562L3.88019 8.40015L3.87467 8.39474L2.825 9.46628ZM4.89166 11.5329L3.831 12.5936H3.831L4.89166 11.5329ZM5.49166 13.6246L6.95309 13.9626L6.95384 13.9593L5.49166 13.6246ZM4.9 16.1829L6.36108 16.5224L6.36142 16.5209L4.9 16.1829ZM6.375 17.2579L7.12716 18.5558L7.13911 18.5487L6.375 17.2579ZM8.86666 15.7829L9.63077 17.0737L9.63709 17.07L9.64337 17.0662L8.86666 15.7829ZM14.7167 17.3913C14.6041 17.3913 14.2981 17.3563 13.7605 17.04L12.2395 19.6258C13.1186 20.143 13.9458 20.3913 14.7167 20.3913V17.3913ZM13.7641 17.0422L11.2724 15.5672L9.74422 18.1487L12.2359 19.6237L13.7641 17.0422ZM11.2615 15.5608C10.8209 15.3049 10.3385 15.2454 10.001 15.2454C9.66781 15.2454 9.1755 15.3034 8.72825 15.5717L10.2717 18.1442C10.1557 18.2138 10.0687 18.2342 10.046 18.2392C10.0161 18.2457 10.0021 18.2454 10.001 18.2454C9.99975 18.2454 9.98775 18.2457 9.96131 18.24C9.9412 18.2357 9.86249 18.2175 9.75513 18.1551L11.2615 15.5608ZM8.73777 15.566L6.23777 17.041L7.76222 19.6248L10.2622 18.1498L8.73777 15.566ZM6.23469 17.0429C5.68435 17.3693 5.37737 17.392 5.2722 17.3888C5.21582 17.3871 5.185 17.3774 5.17219 17.3727C5.15763 17.3673 5.14937 17.3618 5.14584 17.3593L3.38748 19.7899C3.78017 20.074 4.37915 20.3633 5.18196 20.3875C5.97679 20.4114 6.84064 20.1716 7.7653 19.623L6.23469 17.0429ZM5.15825 17.3683C5.15803 17.3682 5.15129 17.3632 5.14176 17.351C5.13339 17.3402 5.11459 17.3134 5.09578 17.2597C5.06087 17.1601 4.98985 16.8613 5.13522 16.2428L2.21477 15.5565C1.96847 16.6046 2.00162 17.5016 2.26463 18.252C2.5297 19.0083 2.98528 19.4928 3.37508 19.7809L5.15825 17.3683ZM5.13642 16.2376L5.72809 13.6793L2.80524 13.0033L2.21357 15.5616L5.13642 16.2376ZM5.72188 13.7051C5.84477 13.2135 5.76203 12.7405 5.6743 12.4371C5.58488 12.1279 5.40478 11.6997 5.06066 11.3556L2.93934 13.4769C2.85399 13.3916 2.81674 13.3229 2.80784 13.3059C2.79583 13.2831 2.79281 13.272 2.79236 13.2704C2.79199 13.2692 2.78775 13.2553 2.78542 13.2242C2.78368 13.2009 2.77824 13.1103 2.81145 12.9775L5.72188 13.7051ZM5.06066 11.3556L2.99399 9.28895L0.87267 11.4103L2.93934 13.4769L5.06066 11.3556ZM2.99399 9.28895C2.64859 8.94355 2.57201 8.70978 2.55219 8.62142C2.53131 8.52826 2.54717 8.47663 2.55074 8.46572L-0.300747 7.5335C-0.438846 7.95592 -0.53548 8.56262 -0.375118 9.2778C-0.213681 9.99777 0.184733 10.7223 0.87267 11.4103L2.99399 9.28895ZM2.55074 8.46572C2.55622 8.44896 2.57684 8.393 2.65177 8.32614C2.72267 8.26288 2.9225 8.11747 3.39938 8.03707L2.90061 5.07882C1.94416 5.24008 1.20232 5.59884 0.654472 6.08766C0.11065 6.57289 -0.164557 7.11692 -0.300747 7.5335L2.55074 8.46572ZM3.39584 8.03766L6.05418 7.59599L5.56248 4.63656L2.90415 5.07823L3.39584 8.03766ZM6.05493 7.59587C6.50852 7.52027 6.88374 7.29404 7.1153 7.12171C7.34485 6.95088 7.67419 6.65385 7.8765 6.23367L5.17349 4.93222C5.22996 4.81494 5.28698 4.75235 5.29882 4.73948C5.30869 4.72877 5.31548 4.7225 5.31853 4.71978C5.32172 4.71693 5.32352 4.71556 5.32427 4.71501C5.32502 4.71445 5.32668 4.71324 5.32998 4.71122C5.33312 4.70928 5.34047 4.70492 5.35271 4.69895C5.36735 4.6918 5.43942 4.65707 5.56173 4.63669L6.05493 7.59587ZM7.86588 6.25528L9.34088 3.31362L6.65912 1.96894L5.18412 4.9106L7.86588 6.25528ZM9.3433 3.30876C9.57013 2.85227 9.77501 2.69892 9.85533 2.65026C9.93884 2.59967 9.99192 2.59961 10 2.59961V-0.400391C9.54974 -0.400391 8.93616 -0.300456 8.30092 0.0843712C7.66248 0.471135 7.09653 1.08861 6.65669 1.9738L9.3433 3.30876ZM10 2.59961C10.0081 2.59961 10.0612 2.59967 10.1447 2.65026C10.225 2.69892 10.4299 2.85227 10.6567 3.30876L13.3433 1.9738C12.9035 1.08861 12.3375 0.471135 11.6991 0.0843712C11.0638 -0.300456 10.4503 -0.400391 10 -0.400391V2.59961ZM10.6584 3.3121L12.125 6.24543L14.8083 4.90379L13.3416 1.97046L10.6584 3.3121ZM12.135 6.26508C12.3398 6.66007 12.6566 6.94573 12.8881 7.11668C13.1172 7.28585 13.4917 7.51197 13.9451 7.58753L14.4383 4.62835C14.5606 4.64874 14.6324 4.68344 14.6462 4.69014C14.6672 4.70037 14.6732 4.70559 14.6702 4.70338C14.6674 4.70126 14.6726 4.70443 14.6865 4.71911C14.695 4.72818 14.745 4.78142 14.7983 4.88413L12.135 6.26508ZM13.9458 7.58766L16.6041 8.02933L17.0958 5.06989L14.4375 4.62823L13.9458 7.58766ZM16.602 8.02897C17.085 8.10993 17.2856 8.25633 17.3545 8.31781C17.4272 8.38266 17.4412 8.4321 17.4413 8.4324L20.3087 7.55015C20.1754 7.11712 19.8978 6.56656 19.3518 6.07933C18.8019 5.58872 18.0567 5.23095 17.098 5.07025L16.602 8.02897ZM17.4413 8.4324C17.4484 8.45551 17.4635 8.51517 17.4415 8.61309C17.4207 8.70598 17.343 8.94082 17.0017 9.28492L19.1316 11.3976C19.8153 10.7084 20.2084 9.9849 20.3689 9.26947C20.5282 8.55905 20.4349 7.96037 20.3087 7.55015L17.4413 8.4324ZM17.0039 9.28275L14.9372 11.3578L17.0628 13.4748L19.1295 11.3998L17.0039 9.28275ZM14.9393 11.3556C14.5922 11.7027 14.4147 12.1324 14.3272 12.4397C14.2387 12.7503 14.1687 13.194 14.266 13.6525L17.2007 13.03C17.2237 13.1385 17.219 13.2095 17.2176 13.2271C17.2157 13.2505 17.2128 13.2604 17.2124 13.2616C17.2121 13.2626 17.2087 13.2752 17.1956 13.3004C17.1852 13.3203 17.1468 13.3908 17.0607 13.4769L14.9393 11.3556ZM14.2719 13.6793L14.8636 16.2376L17.7864 15.5616L17.1948 13.0033L14.2719 13.6793ZM14.8632 16.2358C15.0062 16.8576 14.9358 17.16 14.9 17.2628C14.8666 17.3588 14.8309 17.3764 14.8417 17.3683L16.6249 19.7809C17.0191 19.4895 17.4709 19.003 17.7333 18.2489C17.9934 17.5017 18.0272 16.6083 17.7868 15.5634L14.8632 16.2358ZM14.8569 17.3573C14.8472 17.3643 14.8352 17.3713 14.8194 17.377C14.8058 17.3818 14.7745 17.3913 14.7167 17.3913V20.3913C15.5697 20.3913 16.2031 20.0848 16.6098 19.7919L14.8569 17.3573ZM10 16.9913C10.1809 16.9913 10.3181 17.0387 10.3797 17.075L11.9036 14.4909C11.3152 14.1439 10.6358 13.9913 10 13.9913V16.9913ZM10.3776 17.0737L12.8692 18.5487L14.3974 15.9672L11.9058 14.4922L10.3776 17.0737ZM12.8638 18.5455C13.336 18.8277 13.8078 19.0223 14.2677 19.1003C14.676 19.1696 15.3098 19.1824 15.8635 18.7869L14.1198 16.3457C14.3223 16.201 14.5085 16.1587 14.604 16.1456C14.7055 16.1317 14.7653 16.1419 14.7697 16.1426C14.7755 16.1436 14.6557 16.1215 14.4029 15.9704L12.8638 18.5455ZM15.8635 18.7869C16.4519 18.3666 16.6202 17.7176 16.6714 17.3309C16.7314 16.8775 16.6894 16.3778 16.5719 15.8544L13.6448 16.5115C13.6765 16.653 13.6906 16.7592 13.6959 16.8332C13.7013 16.9083 13.6969 16.9405 13.6974 16.9371C13.6977 16.9347 13.6998 16.9196 13.7067 16.894C13.7136 16.8689 13.7265 16.8287 13.7501 16.7782C13.7927 16.6869 13.8974 16.5046 14.1198 16.3457L15.8635 18.7869ZM16.5698 15.845L15.9781 13.2866L13.0552 13.9626L13.6469 16.5209L16.5698 15.845ZM15.9788 13.2899C15.9368 13.1062 16.0384 12.7349 16.1861 12.5848L14.0473 10.4811C13.1949 11.3476 12.7799 12.7597 13.0545 13.9593L15.9788 13.2899ZM16.1773 12.5936L18.244 10.5269L16.1227 8.40562L14.056 10.4723L16.1773 12.5936ZM18.244 10.5269C18.5327 10.2382 18.8007 9.89601 18.9813 9.50852C19.1532 9.13996 19.3162 8.57168 19.1272 7.94793L16.2561 8.81795C16.2026 8.64118 16.2065 8.49198 16.22 8.39769C16.2332 8.30564 16.2572 8.25196 16.2624 8.2407C16.2702 8.22405 16.2423 8.28598 16.1227 8.40562L18.244 10.5269ZM19.1147 7.9086C18.9095 7.29301 18.4513 6.92122 18.0948 6.71693C17.72 6.50216 17.299 6.37676 16.8895 6.31053L16.4105 9.27203C16.5677 9.29746 16.6216 9.3304 16.6031 9.31979C16.5913 9.313 16.5413 9.28297 16.4784 9.21621C16.4142 9.14809 16.3263 9.03026 16.2686 8.85728L19.1147 7.9086ZM16.8958 6.31156L14.2375 5.86989L13.7458 8.82932L16.4041 9.27099L16.8958 6.31156ZM14.2414 5.87054C14.1993 5.86343 14.0793 5.8237 13.9355 5.71739C13.7916 5.61108 13.7189 5.5083 13.7 5.47046L11.0167 6.8121C11.2894 7.35758 11.7125 7.80481 12.152 8.12974C12.5916 8.45468 13.1424 8.72745 13.742 8.82868L14.2414 5.87054ZM13.7 5.47046L12.2333 2.53712L9.55002 3.87876L11.0167 6.8121L13.7 5.47046ZM12.2333 2.53712C12.0476 2.16562 11.8036 1.79571 11.4897 1.49674C11.1968 1.21782 10.6878 0.857943 10 0.857943V3.85794C9.79797 3.85794 9.64554 3.80291 9.55679 3.75877C9.47023 3.71571 9.42682 3.67496 9.42072 3.66915C9.41305 3.66184 9.4691 3.71693 9.55002 3.87876L12.2333 2.53712ZM10 0.857943C9.312 0.857943 8.80217 1.21785 8.50765 1.50027C8.19241 1.80255 7.94944 2.17677 7.76669 2.55405L10.4666 3.86184C10.5422 3.70579 10.5951 3.655 10.584 3.66562C10.5763 3.67302 10.5318 3.7147 10.4442 3.75831C10.3546 3.80296 10.2019 3.85794 10 3.85794V0.857943ZM7.77655 2.53408L6.30155 5.46741L8.98178 6.81514L10.4568 3.88181L7.77655 2.53408ZM6.30002 5.47046C6.2811 5.5083 6.20834 5.61108 6.06454 5.71739C5.92073 5.8237 5.80072 5.86343 5.75862 5.87054L6.25804 8.82868C6.85761 8.72745 7.40842 8.45468 7.84795 8.12974C8.28748 7.80481 8.71056 7.35758 8.9833 6.8121L6.30002 5.47046ZM5.76173 5.87002L3.11173 6.31169L3.60493 9.27087L6.25493 8.8292L5.76173 5.87002ZM3.1188 6.31053C2.70935 6.37676 2.28829 6.50216 1.91352 6.71693C1.55706 6.92122 1.09884 7.29301 0.893638 7.9086L3.73969 8.85728C3.68203 9.03026 3.59417 9.14809 3.52996 9.21621C3.46704 9.28297 3.41706 9.313 3.40522 9.31979C3.38671 9.3304 3.44065 9.29746 3.59786 9.27203L3.1188 6.31053ZM0.893638 7.9086C0.678005 8.5555 0.853034 9.14763 1.02542 9.51497C1.20918 9.90656 1.48248 10.2509 1.77533 10.5378L3.87467 8.39474C3.75918 8.28161 3.73248 8.22183 3.74124 8.2405C3.74694 8.25264 3.77253 8.30971 3.78597 8.40734C3.79975 8.5074 3.80269 8.66827 3.73969 8.85728L0.893638 7.9086ZM1.76434 10.5269L3.831 12.5936L5.95232 10.4723L3.88566 8.40562L1.76434 10.5269ZM3.831 12.5936C3.8667 12.6293 3.94478 12.7396 3.99671 12.9206C4.04857 13.1014 4.04139 13.2379 4.02948 13.2899L6.95384 13.9593C7.10027 13.3197 7.04309 12.6604 6.88037 12.0932C6.71771 11.5263 6.41662 10.9366 5.95232 10.4723L3.831 12.5936ZM4.03024 13.2866L3.43857 15.845L6.36142 16.5209L6.95309 13.9626L4.03024 13.2866ZM3.43891 15.8435C3.31552 16.3746 3.27146 16.8811 3.33483 17.3416C3.39061 17.7469 3.57028 18.3765 4.14481 18.7869L5.88852 16.3457C6.10088 16.4974 6.20501 16.6707 6.25001 16.7645C6.29721 16.8628 6.30614 16.9276 6.30683 16.9326C6.3077 16.939 6.29281 16.8163 6.36108 16.5224L3.43891 15.8435ZM4.14481 18.7869C4.70706 19.1885 5.34708 19.1656 5.74519 19.0959C6.19585 19.017 6.66003 18.8264 7.12713 18.5557L5.62286 15.9601C5.4943 16.0346 5.39556 16.0807 5.32598 16.1083C5.25538 16.1362 5.22366 16.1416 5.22772 16.1408C5.22894 16.1406 5.2891 16.1296 5.39266 16.1431C5.49161 16.1559 5.68244 16.1985 5.88852 16.3457L4.14481 18.7869ZM7.13911 18.5487L9.63077 17.0737L8.10255 14.4922L5.61089 15.9672L7.13911 18.5487ZM9.64337 17.0662C9.68603 17.0404 9.81499 16.9913 10 16.9913V13.9913C9.36834 13.9913 8.68063 14.1422 8.08996 14.4997L9.64337 17.0662Z" fill="#545555" mask="url(#path-1-inside-1_2576_6546)"/>
</svg>
